<?xml version="1.0" encoding="UTF-8" standalone="no"?>
<!-- Created with Inkscape (http://www.inkscape.org/) -->

<svg
   xmlns:dc="http://purl.org/dc/elements/1.1/"
   xmlns:cc="http://creativecommons.org/ns#"
   xmlns:rdf="http://www.w3.org/1999/02/22-rdf-syntax-ns#"
   xmlns:svg="http://www.w3.org/2000/svg"
   xmlns="http://www.w3.org/2000/svg"
   xmlns:xlink="http://www.w3.org/1999/xlink"
   xmlns:sodipodi="http://sodipodi.sourceforge.net/DTD/sodipodi-0.dtd"
   xmlns:inkscape="http://www.inkscape.org/namespaces/inkscape"
   width="215.63547mm"
   height="150.98267mm"
   viewBox="0 0 764.06268 534.97795"
   id="svg2"
   version="1.1"
   inkscape:version="0.91 r13725"
   sodipodi:docname="kangarooSprite1.svg">
  <defs
     id="defs4">
    <linearGradient
       inkscape:collect="always"
       id="linearGradient4272">
      <stop
         style="stop-color:#bbbbbb;stop-opacity:1;"
         offset="0"
         id="stop4274" />
      <stop
         style="stop-color:#bbbbbb;stop-opacity:0;"
         offset="1"
         id="stop4276" />
    </linearGradient>
    <linearGradient
       inkscape:collect="always"
       id="linearGradient4264">
      <stop
         style="stop-color:#000000;stop-opacity:1;"
         offset="0"
         id="stop4266" />
      <stop
         style="stop-color:#000000;stop-opacity:0;"
         offset="1"
         id="stop4268" />
    </linearGradient>
    <linearGradient
       inkscape:collect="always"
       id="linearGradient4248">
      <stop
         style="stop-color:#000000;stop-opacity:1;"
         offset="0"
         id="stop4250" />
      <stop
         style="stop-color:#000000;stop-opacity:0;"
         offset="1"
         id="stop4252" />
    </linearGradient>
    <linearGradient
       inkscape:collect="always"
       id="linearGradient4240">
      <stop
         style="stop-color:#000000;stop-opacity:1;"
         offset="0"
         id="stop4242" />
      <stop
         style="stop-color:#000000;stop-opacity:0;"
         offset="1"
         id="stop4244" />
    </linearGradient>
    <linearGradient
       inkscape:collect="always"
       id="linearGradient4221">
      <stop
         style="stop-color:#2d241b;stop-opacity:1;"
         offset="0"
         id="stop4223" />
      <stop
         style="stop-color:#2d241b;stop-opacity:0;"
         offset="1"
         id="stop4225" />
    </linearGradient>
    <linearGradient
       inkscape:collect="always"
       id="linearGradient4197">
      <stop
         style="stop-color:#403327;stop-opacity:1;"
         offset="0"
         id="stop4199" />
      <stop
         style="stop-color:#403327;stop-opacity:0;"
         offset="1"
         id="stop4201" />
    </linearGradient>
    <linearGradient
       inkscape:collect="always"
       id="linearGradient4181">
      <stop
         style="stop-color:#403327;stop-opacity:1;"
         offset="0"
         id="stop4183" />
      <stop
         style="stop-color:#403327;stop-opacity:0;"
         offset="1"
         id="stop4185" />
    </linearGradient>
    <linearGradient
       inkscape:collect="always"
       id="linearGradient4163">
      <stop
         style="stop-color:#332315;stop-opacity:1;"
         offset="0"
         id="stop4165" />
      <stop
         style="stop-color:#332315;stop-opacity:0;"
         offset="1"
         id="stop4167" />
    </linearGradient>
    <linearGradient
       inkscape:collect="always"
       id="linearGradient4222">
      <stop
         style="stop-color:#000000;stop-opacity:1;"
         offset="0"
         id="stop4224" />
      <stop
         style="stop-color:#000000;stop-opacity:0;"
         offset="1"
         id="stop4226" />
    </linearGradient>
    <linearGradient
       inkscape:collect="always"
       xlink:href="#linearGradient4222"
       id="linearGradient4228"
       x1="-565.17859"
       y1="352.89792"
       x2="-571.07141"
       y2="355.21936"
       gradientUnits="userSpaceOnUse" />
    <linearGradient
       inkscape:collect="always"
       xlink:href="#linearGradient4163"
       id="linearGradient4169"
       x1="-1136.4216"
       y1="651.33167"
       x2="-1009.1424"
       y2="446.27069"
       gradientUnits="userSpaceOnUse" />
    <linearGradient
       inkscape:collect="always"
       xlink:href="#linearGradient4181"
       id="linearGradient4187"
       x1="-684.88342"
       y1="595.77325"
       x2="-676.29712"
       y2="574.05499"
       gradientUnits="userSpaceOnUse" />
    <linearGradient
       inkscape:collect="always"
       xlink:href="#linearGradient4197"
       id="linearGradient4203"
       x1="-706.07141"
       y1="585.21936"
       x2="-685.35712"
       y2="557.71936"
       gradientUnits="userSpaceOnUse" />
    <linearGradient
       inkscape:collect="always"
       xlink:href="#linearGradient4221"
       id="linearGradient4227"
       x1="-660.63977"
       y1="479.60571"
       x2="-688.92401"
       y2="440.20978"
       gradientUnits="userSpaceOnUse" />
    <linearGradient
       inkscape:collect="always"
       xlink:href="#linearGradient4240"
       id="linearGradient4246"
       x1="-584.8783"
       y1="430.10825"
       x2="-607.10168"
       y2="442.23007"
       gradientUnits="userSpaceOnUse" />
    <linearGradient
       inkscape:collect="always"
       xlink:href="#linearGradient4248"
       id="linearGradient4254"
       x1="-489.92398"
       y1="424.04733"
       x2="-501.03568"
       y2="422.02701"
       gradientUnits="userSpaceOnUse" />
    <linearGradient
       inkscape:collect="always"
       xlink:href="#linearGradient4264"
       id="linearGradient4270"
       x1="-962.67535"
       y1="747.29614"
       x2="-965.70581"
       y2="686.68701"
       gradientUnits="userSpaceOnUse" />
    <linearGradient
       inkscape:collect="always"
       xlink:href="#linearGradient4272"
       id="linearGradient4278"
       x1="-932.37085"
       y1="567.48895"
       x2="-898.02563"
       y2="529.10321"
       gradientUnits="userSpaceOnUse" />
  </defs>
  <sodipodi:namedview
     id="base"
     pagecolor="#ffffff"
     bordercolor="#666666"
     borderopacity="1.0"
     inkscape:pageopacity="0.0"
     inkscape:pageshadow="2"
     inkscape:zoom="0.7"
     inkscape:cx="534.33887"
     inkscape:cy="228.51407"
     inkscape:document-units="px"
     inkscape:current-layer="layer1"
     showgrid="false"
     inkscape:window-width="1920"
     inkscape:window-height="1043"
     inkscape:window-x="1366"
     inkscape:window-y="0"
     inkscape:window-maximized="1"
     fit-margin-top="0"
     fit-margin-left="0"
     fit-margin-right="0"
     fit-margin-bottom="0" />
  <metadata
     id="metadata7">
    <rdf:RDF>
      <cc:Work
         rdf:about="">
        <dc:format>image/svg+xml</dc:format>
        <dc:type
           rdf:resource="http://purl.org/dc/dcmitype/StillImage" />
        <dc:title></dc:title>
      </cc:Work>
    </rdf:RDF>
  </metadata>
  <g
     inkscape:label="Layer 1"
     inkscape:groupmode="layer"
     id="layer1"
     transform="translate(1221.6765,-277.54543)">
    <g
       id="g4285">
      <path
         sodipodi:nodetypes="aaaaaaaaaaaa"
         inkscape:connector-curvature="0"
         id="path4235"
         d="m -535.89286,369.32649 c 0.906,-0.70008 1.65159,-1.89162 1.60714,-3.03572 -0.2462,-6.33639 -6.23691,-11.10416 -10.17857,-16.07142 -6.22699,-7.84722 -13.24004,-15.18168 -21.07143,-21.42858 -5.13974,-4.09984 -10.46067,-8.56284 -16.78571,-10.35714 -1.83246,-0.51984 -4.13702,-1.06787 -5.71429,0 -0.26543,0.17971 -0.35366,0.57233 -0.35714,0.89286 -0.006,0.50854 0.34414,0.95746 0.53572,1.42857 1.00402,2.46897 2.22204,4.8477 3.21428,7.32143 4.07985,10.17144 4.09726,22.58974 11.25,30.89286 6.10184,7.08321 15.37637,12.15329 24.64286,13.39285 4.36468,0.58386 9.37265,-0.34319 12.85714,-3.03571 z"
         style="fill:#30271f;fill-opacity:1;fill-rule:evenodd;stroke:none;stroke-width:1px;stroke-linecap:butt;stroke-linejoin:miter;stroke-opacity:1" />
      <g
         style="stroke:none"
         id="g4189">
        <path
           style="fill:#7a614a;fill-opacity:1;fill-rule:evenodd;stroke:none;stroke-width:1px;stroke-linecap:butt;stroke-linejoin:miter;stroke-opacity:1"
           d="m -662.5,497.71935 -1.78572,15.71428 -1.07142,47.5 0.71428,24.28572 c 0,0 -5.78109,3.68972 -8.21428,6.07143 -2.36531,2.31528 -4.19375,5.13142 -6.07143,7.85714 -1.42466,2.0681 -2.14286,5.35714 -3.92857,6.42857 -1.78572,1.07143 -11.20202,7.32207 -17.5,7.14286 -2.76786,-0.0788 -7.5,-3.57143 -7.5,-3.57143 0,0 1.48553,-2.107 2.14285,-3.21429 2.74541,-4.62477 4.31224,-9.95398 7.5,-14.28571 3.49259,-4.74595 12.5,-12.5 12.5,-12.5 0,0 4.83443,-17.95455 6.07143,-27.14286 1.33574,-9.92182 1.42857,-30 1.42857,-30 l -1.42857,-27.5 8.92857,-17.14286 21.78572,7.14286 z"
           id="path4250"
           inkscape:connector-curvature="0"
           sodipodi:nodetypes="ccccaasacaacaccccc" />
        <path
           style="opacity:1;fill:url(#linearGradient4187);fill-opacity:1;stroke:none;stroke-width:1;stroke-miterlimit:4;stroke-dasharray:none;stroke-opacity:1"
           d="m -704.29252,610.43514 c -1.8842,-1.41019 -1.8121,-1.71451 2.35158,-9.92593 2.90642,-5.7319 6.38123,-10.59431 10.74595,-15.03712 l 6.45059,-6.56599 2.82856,-11.65339 2.82855,-11.65339 6.15777,2.41321 6.15777,2.41321 0.64075,8.23003 c 1.152,14.79693 0.98899,16.18044 -2.12507,18.0359 -3.98665,2.37536 -8.72171,7.61398 -12.0408,13.32129 -2.1968,3.7775 -4.20961,5.64317 -8.52853,7.90509 -6.86141,3.59348 -12.74878,4.55158 -15.46712,2.51709 z"
           id="path4179"
           inkscape:connector-curvature="0" />
      </g>
      <g
         id="g4171">
        <path
           style="fill:#9f6e42;fill-opacity:1;fill-rule:evenodd;stroke:none;stroke-width:1px;stroke-linecap:butt;stroke-linejoin:miter;stroke-opacity:1"
           d="m -901.78572,293.07649 c -26.15464,1.43527 -49.57952,19.04958 -70.35714,35 -12.8454,9.86106 -23.3701,22.81667 -32.14284,36.42857 -13.8559,21.49904 -22.7994,45.92236 -31.4286,70 -9.1588,25.5554 -11.1247,53.45588 -21.4286,78.57143 -9.954,24.26258 -25.0779,46.08411 -38.5714,68.57143 -10.467,17.44347 -19.8702,35.77061 -32.8571,51.42857 -10.4306,12.57588 -22.6617,23.74394 -35.7143,33.57143 -11.7273,8.82962 -25.3894,14.75118 -37.8572,22.5 -4.6415,2.8847 -9.7717,5.18182 -13.75,8.92857 -2.262,2.13034 -4.5644,4.54848 -5.5357,7.5 -0.3163,0.96119 -0.3445,2.08425 0,3.03571 0.4748,1.31139 1.3634,2.75006 2.6786,3.21429 1.7172,0.60615 3.6018,-0.58656 5.3571,-1.07143 2.7403,-0.75693 5.3749,-1.85628 8.0358,-2.85714 22.6317,-8.51272 46.4201,-14.7813 67.4203,-26.76678 14.7993,-8.44643 28.2831,-19.3399 40.4061,-31.31472 11.9345,-11.78867 21.5386,-25.76386 31.3147,-39.39595 8.8722,-12.37167 17.6144,-24.93681 24.7487,-38.3858 9.8624,-18.59161 17.2416,-38.42274 24.7488,-58.08377 7.6726,-20.09411 11.5053,-41.67331 20.70809,-61.11423 7.21559,-15.24289 13.28596,-32.80147 26.76904,-42.93148 12.86842,-9.66821 34.42186,-2.45564 46.46702,-13.13199 20.24592,-17.94519 24.73857,-48.63963 31.28935,-74.88871 1.9612,-7.85855 6.5865,-17.34225 2.2654,-24.1929 -2.3806,-3.7742 -8.11055,-4.8596 -12.56612,-4.6151 z"
           id="path4246"
           inkscape:connector-curvature="0"
           sodipodi:nodetypes="aaaaaaaaaaaaaaaaaaaaaaaaaa" />
        <path
           style="opacity:1;fill:url(#linearGradient4169);fill-opacity:1;stroke:none;stroke-width:1.01015258;stroke-miterlimit:4;stroke-dasharray:none;stroke-opacity:1"
           d="m -1220.2919,708.45044 c -1.7295,-5.44929 5.6671,-11.53814 31.3235,-25.78538 23.3664,-12.97557 34.1035,-21.03422 51.2424,-38.45967 11.0925,-11.27799 19.3843,-22.51227 30.6326,-41.50337 4.866,-8.21544 15.2307,-25.39225 23.0328,-38.17068 25.3207,-41.47095 30.9508,-54.75901 39.5903,-93.43911 9.0766,-40.63708 25.5816,-82.59272 42.7216,-108.59768 12.68992,-19.25323 25.36048,-31.36946 50.67126,-48.4544 19.93567,-13.45671 35.90105,-19.72461 50.24184,-19.72461 5.81756,0 6.78482,0.30271 9.43486,2.95275 2.09892,2.09893 2.95275,3.94018 2.95275,6.36751 0,4.74532 -12.63418,54.10383 -16.24647,63.47082 -3.36284,8.72013 -8.7638,18.01163 -14.29063,24.58475 -5.66445,6.7368 -12.04533,9.36949 -27.04159,11.15709 -6.9448,0.82784 -14.26899,1.97925 -16.27598,2.55869 -9.06261,2.61646 -17.35374,11.77642 -25.67158,28.36173 -8.95879,17.86332 -14.33966,31.43022 -20.69506,52.17935 -12.3979,40.4762 -27.2638,76.22757 -40.7189,97.92611 -7.0749,11.4094 -26.8397,39.2833 -36.1574,50.99212 -8.9149,11.20261 -22.8355,24.42958 -36.2476,34.44153 -13.3556,9.96976 -33.5063,20.05323 -55.0533,27.54889 -8.8894,3.09238 -21.0652,7.42677 -27.0574,9.63201 -12.4261,4.57302 -15.4445,4.9343 -16.388,1.96155 z"
           id="path4161"
           inkscape:connector-curvature="0" />
      </g>
      <path
         sodipodi:nodetypes="aaaaaaaaaaaaaaaaaaaaaaaaaaaaaaaaaaaaaaaaaaaa"
         inkscape:connector-curvature="0"
         id="path4147"
         d="m -550,446.29078 c -8.27331,8.32681 -18.56413,14.38877 -28.21429,21.07142 -11.97279,8.29104 -23.52204,17.55778 -36.78571,23.57143 -9.36786,4.24732 -19.42632,7.38026 -29.64286,8.57143 -19.17929,2.23616 -38.87936,0.7051 -57.85714,-2.85714 -24.41999,-4.58377 -46.52143,-17.90994 -70.71429,-23.57143 -8.42606,-1.97182 -17.12021,-2.55729 -25.71428,-3.57143 -25.6575,-3.02772 -51.8967,-2.01313 -77.14286,-7.5 -23.61852,-5.13313 -49.15896,-9.17213 -68.57143,-23.57143 -8.492,-6.29899 -14.56777,-15.92847 -18.57143,-25.71428 -4.78793,-11.70273 -6.70929,-24.89492 -5.71428,-37.5 1.14063,-14.45005 5.67404,-29.04918 13.21429,-41.42858 8.23248,-13.5159 20.10131,-25.26422 33.57142,-33.57142 16.75833,-10.33509 36.75779,-14.7453 56.07143,-18.57143 16.39059,-3.24706 33.35816,-5.06944 50,-3.57143 19.58387,1.76283 38.75617,7.67399 57.14286,14.64286 19.76519,7.49134 39.60101,16.13732 56.42857,28.92857 19.71911,14.98923 32.67924,37.29315 50.35714,54.64286 9.08801,8.91929 18.5391,17.51507 28.57143,25.35714 3.9804,3.1114 7.84514,6.60759 12.5,8.57143 2.79644,1.17979 5.97119,2.46831 8.92857,1.78571 9.18729,-2.12055 16.10933,-10.21016 22.5,-17.14286 6.13282,-6.65298 7.56753,-17.21681 14.64286,-22.85714 6.33069,-5.04672 14.77357,-8.66478 22.85714,-8.21428 7.28273,0.40587 13.06738,6.48594 19.64286,9.64285 5.80917,2.789 12.50183,4.14696 17.5,8.21429 4.15518,3.38134 6.3498,8.63165 9.64286,12.85714 1.97719,2.53703 4.20775,4.87845 6.07142,7.5 2.35435,3.31177 3.92574,7.15611 6.42858,10.35714 5.67818,7.26217 13.80065,12.41231 19.28571,19.82143 2.42522,3.27595 5.35236,6.67431 5.89286,10.71429 0.23548,1.76008 -0.16948,3.76938 -1.25,5.17857 -0.90765,1.18373 -2.87813,1.08379 -3.92857,2.14286 -1.02204,1.03044 -1.13982,2.71171 -2.05358,3.83928 -0.93088,1.14871 -1.96759,2.46382 -3.39286,2.85714 -1.24988,0.34492 -2.57852,-0.92777 -3.83928,-0.625 -1.0766,0.25855 -1.71606,1.41704 -2.67857,1.96429 -1.85489,1.05464 -3.75927,2.47425 -5.89286,2.5 -6.46574,0.078 -12.244,-4.26745 -18.03571,-7.14286 -4.42545,-2.1971 -7.91975,-6.34986 -12.67857,-7.67857 -5.9051,-1.64876 -12.29952,0.67807 -18.39286,0 -4.30559,-0.47913 -8.38221,-2.30124 -12.67857,-2.85714 -1.65394,-0.214 -3.49832,-0.90403 -5,-0.17857 -1.26494,0.61109 -1.50985,2.39631 -2.5,3.39286 z"
         style="fill:#b78151;fill-opacity:1;fill-rule:evenodd;stroke:none;stroke-width:1px;stroke-linecap:butt;stroke-linejoin:miter;stroke-opacity:1" />
      <g
         id="g4230">
        <path
           style="fill:#5a493b;fill-opacity:1;fill-rule:evenodd;stroke:none;stroke-width:1px;stroke-linecap:butt;stroke-linejoin:miter;stroke-opacity:1"
           d="m -536.25,375.04077 c 0.70048,-1.45743 0.89748,-3.24538 0.53571,-4.82142 -1.27467,-5.5531 -5.49068,-10.06168 -9.10714,-14.46429 -2.85975,-3.4814 -6.33401,-6.4333 -9.82143,-9.28571 -4.95985,-4.05673 -10.43531,-7.43967 -15.71428,-11.07143 -3.95794,-2.72293 -7.71093,-5.8022 -11.96429,-8.03572 -4.02213,-2.11209 -11.98608,-7.91006 -12.67857,-5 0,0 0.85166,3.60138 1.42857,5.35714 0.55898,1.70119 1.25794,3.35454 1.96429,5.00001 1.9433,4.527 5.09932,8.60265 6.25,13.39285 1.19639,4.98048 -1.39215,10.61163 0.53571,15.35715 1.6336,4.02118 4.90663,7.62616 8.75,9.64285 3.19049,1.67411 7.40081,0.0134 10.71429,1.42857 2.80406,1.19761 4.85481,3.69887 7.14285,5.71429 1.99004,1.75293 3.22444,4.62267 5.71429,5.53571 2.5204,0.92424 5.5911,0.57357 8.03571,-0.53571 3.5262,-1.60008 6.53687,-4.72421 8.21429,-8.21429 z"
           id="path4168"
           inkscape:connector-curvature="0"
           sodipodi:nodetypes="aaaaaasaaaaaaaaaa" />
        <path
           style="opacity:0.828;fill:#b19b88;fill-opacity:1;stroke:none;stroke-width:0.17857143;stroke-miterlimit:4;stroke-dasharray:none;stroke-opacity:1"
           d="m -550.86733,378.72667 c -3.03369,-0.50293 -5.00295,-2.64897 -5.88902,-6.41771 -0.19448,-0.82719 -0.5588,-2.72576 -0.80959,-4.21903 -0.2508,-1.49328 -0.65098,-3.46203 -0.8893,-4.375 -0.23832,-0.91298 -0.72785,-3.14466 -1.08784,-4.9593 -0.81938,-4.13038 -1.37972,-5.85087 -2.83876,-8.71634 -1.63016,-3.20154 -3.288,-5.75941 -6.66327,-10.28073 -0.72292,-0.96838 -1.28024,-1.79486 -1.23848,-1.83661 0.0418,-0.0418 1.96192,1.87555 4.26702,4.26069 8.17588,8.45976 8.79986,9.24999 12.87131,16.3009 1.4427,2.49844 1.44602,2.5024 5.32354,6.33929 2.13398,2.11161 4.16536,4.28125 4.5142,4.82143 0.76835,1.1898 1.26475,2.98579 1.10368,3.99309 -0.38572,2.41214 -2.98332,4.62495 -5.99254,5.10483 -1.30386,0.20792 -1.32385,0.20781 -2.67095,-0.0155 l 0,1e-5 z"
           id="path4174"
           inkscape:connector-curvature="0" />
        <path
           style="opacity:0.828;fill:url(#linearGradient4228);fill-opacity:1;stroke:none;stroke-width:1;stroke-miterlimit:4;stroke-dasharray:none;stroke-opacity:1"
           d="m -552.59721,383.12784 c -0.77111,-0.3244 -1.89468,-1.37081 -3.06935,-2.85858 -1.82697,-2.31392 -6.32852,-6.46477 -8.23817,-7.59636 -1.70589,-1.01084 -2.86201,-1.26227 -5.80951,-1.26342 -3.27401,-10e-4 -4.8538,-0.2117 -6.02316,-0.80226 -4.116,-2.0787 -7.86476,-6.51745 -8.89006,-10.52636 -0.43281,-1.69225 -0.44762,-3.27003 -0.0676,-7.20024 0.60603,-6.26763 0.10809,-8.05121 -4.8066,-17.21694 -0.72628,-1.35449 -1.81153,-3.68485 -2.41165,-5.17857 -1.10429,-2.7486 -2.61605,-7.88353 -2.41617,-8.20694 0.20307,-0.32857 1.70341,0.0383 3.34421,0.81776 0.8955,0.42541 2.9139,1.53837 4.48533,2.47326 1.57143,0.93489 3.41964,2.00859 4.10714,2.386 3.19043,1.75142 4.00951,2.41073 6.50765,5.23831 5.70731,6.45997 10.13447,12.62869 12.6086,17.56857 1.3316,2.6587 1.82974,4.19913 2.58355,7.98933 0.30277,1.52232 0.82411,3.93304 1.15853,5.35714 0.33443,1.42411 0.77318,3.59375 0.975,4.82143 0.70999,4.31879 1.27001,6.07456 2.49424,7.81981 0.4036,0.57537 1.0334,1.27293 1.39955,1.55014 0.52527,0.39767 0.88265,0.97544 1.6938,2.73837 0.56544,1.2289 1.0074,2.25493 0.98215,2.28007 -0.0253,0.0251 -0.29862,-0.0606 -0.60747,-0.19052 z"
           id="path4220"
           inkscape:connector-curvature="0" />
      </g>
      <path
         sodipodi:nodetypes="aaaaaaacccacaaaaaaccaacccaaaaaaaa"
         inkscape:connector-curvature="0"
         id="path4244"
         d="m -841.96215,343.74019 c 16.1213,6.35511 33.52465,13.9311 43.94164,27.7792 12.33111,16.39269 17.49766,38.58366 17.17259,59.09392 -0.23286,14.6927 -6.2371,29.22604 -13.63706,41.92133 -10.80177,18.53139 -27.65518,32.94999 -43.43656,47.47717 -11.74396,10.81063 -24.36483,20.80261 -37.88072,29.29443 -5.10028,3.20443 -11.32041,4.49849 -16.16244,8.08122 -7.65831,5.66656 -19.69797,20.70812 -19.69797,20.70812 l -55.05332,70.71068 0,6.56599 c 0,0 10.91973,31.41326 15.15229,47.47717 3.76896,14.3044 9.09137,43.43656 9.09137,43.43656 0,0 -3.53771,24.53292 -7.07106,36.36549 -2.29008,7.66906 -3.73221,16.27875 -9.09138,22.22336 -3.58087,3.97205 -8.8382,8.26032 -14.14213,7.57615 -6.38012,-0.82299 -12.50273,-6.91141 -14.14214,-13.13199 -1.84542,-7.00229 5.82563,-13.50469 6.56599,-20.70813 0.67483,-6.56585 -1.56554,-13.11322 -2.0203,-19.69797 -0.325,-4.70584 -0.50508,-14.14214 -0.50508,-14.14214 l 4.04061,-5.55583 c 0,0 -5.44918,-30.20219 -9.59645,-44.95179 -3.5744,-12.7122 -10.26598,-24.48524 -13.13193,-37.37565 -2.5705,-11.56159 -3.5356,-35.35534 -3.5356,-35.35534 l 4.0406,-11.61675 44.44674,-39.90103 c 0,0 31.30447,-30.86757 41.41625,-50.00255 4.82978,-9.13962 7.97076,-19.48056 8.5863,-29.7995 0.43675,-7.32171 -0.6518,-14.97422 -3.53553,-21.71828 -4.06422,-9.50482 -12.93828,-16.15792 -18.68783,-24.74873 -4.23975,-6.33491 -9.80555,-12.29351 -11.61675,-19.69798 -4.52667,-18.50575 -6.32052,-40.47504 3.03046,-57.07362 9.39724,-16.68068 28.73346,-28.42274 47.47717,-32.32488 15.93695,-3.31782 32.83783,3.12136 47.98224,9.09137 z"
         style="fill:#c09167;fill-opacity:1;fill-rule:evenodd;stroke:none;stroke-width:1px;stroke-linecap:butt;stroke-linejoin:miter;stroke-opacity:1" />
      <path
         sodipodi:nodetypes="accssaacsaaasccccaaaaaaaa"
         inkscape:connector-curvature="0"
         id="path4248"
         d="m -633.92857,485.93363 c -7.84368,5.53785 -25,9.64286 -27.14286,9.64286 -2.14286,0 -7.14286,3.92857 -7.14286,3.92857 0,0 0.65924,5.08849 0,7.5 -0.8022,2.93445 -3.36671,5.09562 -4.64285,7.85714 -1.53193,3.31503 -3.57143,10.35715 -3.57143,10.35715 l -1.07143,37.14285 -5,19.64286 -21.42857,20.35714 c 0,0 -12.85715,1.42858 -13.92857,-0.35714 -1.07143,-1.78571 -2.32481,-6.41868 -1.78572,-9.64286 0.51869,-3.10214 2.41887,-5.99029 4.64286,-8.21428 2.22399,-2.22399 5.43776,-3.16529 8.21428,-4.64286 3.05493,-1.62574 7.85715,-4.64286 9.28572,-4.64286 1.42857,0 3.55348,-12.81381 3.55348,-12.81381 0,0 1.98677,-22.80543 0.95939,-34.14522 -0.86211,-9.51553 -5.40513,-18.50153 -5.94144,-28.04097 -0.62436,-11.10561 2.5,-31.78571 3.21428,-33.21428 0.71429,-1.42857 7.10393,-6.55459 11.07143,-9.28572 4.37111,-3.00897 9.22703,-5.24715 13.91063,-7.74202 3.77908,-2.01305 7.66239,-3.82584 11.44651,-5.8294 4.80295,-2.543 9.18488,-5.98188 14.28572,-7.85715 5.01817,-1.84488 10.8425,-5.41685 15.71428,-3.21428 9.75643,4.41096 16.82634,17.20683 15.95569,27.87859 -0.88505,10.84818 -11.70709,19.05808 -20.59854,25.33569 z"
         style="fill:#c09167;fill-opacity:1;fill-rule:evenodd;stroke:none;stroke-width:1px;stroke-linecap:butt;stroke-linejoin:miter;stroke-opacity:1" />
      <path
         inkscape:connector-curvature="0"
         id="path4157"
         d="m -498.38401,403.718 1.51523,2.52538 -0.12627,2.52538 -2.02031,2.77792 -2.77792,1.89404 -2.52538,0.37881 -5.05076,-1.89404 -3.40927,-4.41942 -2.52538,-4.04061 5.3033,-1.26269 6.31346,0.25254 3.91434,0.37881 z"
         style="fill:#000000;fill-opacity:1;fill-rule:evenodd;stroke:#000000;stroke-width:1px;stroke-linecap:butt;stroke-linejoin:miter;stroke-opacity:1" />
      <path
         inkscape:connector-curvature="0"
         id="path4195"
         d="m -717.33044,602.07238 c -1.16843,-0.8184 -2.09358,-4.21873 -2.09609,-7.70403 -0.002,-2.70842 0.12436,-3.30029 1.14811,-5.37982 1.73225,-3.5187 4.04621,-5.7096 8.19788,-7.76189 1.92993,-0.95402 5.37046,-2.72501 7.64563,-3.93554 2.27517,-1.21052 4.38632,-2.20095 4.69145,-2.20095 0.80723,0 1.63146,-1.9991 2.61694,-6.34712 1.06,-4.67683 1.47556,-7.88974 1.9471,-15.05404 0.1994,-3.02957 0.43006,-5.57583 0.51258,-5.65835 0.0825,-0.0825 3.57365,0.47893 7.75805,1.24768 l 7.60799,1.39773 -0.10443,5.68919 -0.10443,5.68919 -2.53368,9.92686 -2.53368,9.92687 -10.64674,10.11233 c -12.20553,11.59288 -10.39761,10.56966 -18.67534,10.56966 -3.52047,0 -4.87671,-0.12929 -5.43134,-0.51777 z"
         style="opacity:1;fill:url(#linearGradient4203);fill-opacity:1;stroke:none;stroke-width:1;stroke-miterlimit:4;stroke-dasharray:none;stroke-opacity:1" />
      <path
         inkscape:connector-curvature="0"
         id="path4219"
         d="m -703.00129,495.75894 c -10.11015,-2.20327 -40.91117,-13.12929 -40.91117,-14.51238 0,-0.42934 5.50719,-6.51213 12.23821,-13.51731 26.48845,-27.56737 42.16554,-35.09129 73.62475,-35.3348 18.04765,-0.1397 19.5679,0.52019 11.07465,4.80714 -29.01278,14.64415 -44.70829,24.22994 -47.82752,29.20991 -1.68296,2.68693 -3.65323,15.63195 -3.65323,24.00242 0,6.19142 -0.10348,6.31309 -4.54569,5.34502 z"
         style="opacity:0.55699978;fill:url(#linearGradient4227);fill-opacity:1;stroke:none;stroke-width:1;stroke-miterlimit:4;stroke-dasharray:none;stroke-opacity:1" />
      <path
         inkscape:connector-curvature="0"
         id="path4229"
         d="m -464.62879,447.54885 c -1.02447,-0.88559 -2.3075,-2.64788 -2.85117,-3.91621 l -0.98849,-2.30605 1.59882,-1.51639 c 1.62026,-1.53674 4.37377,-3.14471 5.38503,-3.14471 0.90223,0 3.02204,5.13782 3.02737,7.33749 0.006,2.41802 -0.97399,3.99349 -2.90169,4.66549 -1.22211,0.42603 -1.65216,0.27878 -3.26987,-1.11962 z"
         style="opacity:0.55699978;fill:#000000;fill-opacity:1;stroke:none;stroke-width:1;stroke-miterlimit:4;stroke-dasharray:none;stroke-opacity:1" />
      <path
         inkscape:connector-curvature="0"
         id="path4236"
         d="m -666.75818,499.10747 c 0,-1.17404 5.33869,-4.05554 7.5139,-4.05554 3.62977,0 20.76928,-6.28962 25.27833,-9.27629 14.31176,-9.47972 21.5264,-19.84432 20.40488,-29.31379 -1.0732,-9.06146 -7.28935,-19.15676 -13.90095,-22.57575 -3.36619,-1.74073 -8.31736,-1.89554 -11.20457,-0.35036 -1.53975,0.82405 -2.67004,0.79758 -4.35072,-0.10189 -1.4633,-0.78314 -5.64751,-1.08915 -11.76898,-0.86073 -8.16973,0.30485 -9.83939,0.67237 -11.93579,2.62727 -1.34055,1.25006 -2.74462,2.27284 -3.12015,2.27284 -0.37554,0 -2.22174,1.35645 -4.10268,3.01433 -1.88093,1.65787 -3.95021,3.02158 -4.59839,3.03045 -0.64818,0.009 -1.33003,0.39446 -1.51523,0.85686 -0.18519,0.4624 -3.26587,2.96045 -6.84594,5.55123 -4.73253,3.42476 -6.72729,4.36711 -7.30814,3.45242 -1.34519,-2.11833 -0.90638,-25.92511 0.67071,-36.38801 3.46813,-23.0085 11.26805,-43.00381 21.4974,-55.10917 l 2.84435,-3.36598 6.52429,7.8168 c 7.00089,8.38783 23.65727,24.04812 37.42816,35.18987 9.03261,7.30811 16.94862,11.68151 21.17317,11.69767 8.34455,0.0319 23.88663,-13.89629 31.15345,-27.91851 2.3459,-4.52672 5.16325,-9.04305 6.26076,-10.03629 1.94182,-1.75732 2.15154,-1.65144 7.79918,3.93726 5.20251,5.14822 6.24246,5.74314 10.03934,5.74314 l 4.23564,0 1.79599,5.80838 c 2.5829,8.35333 2.50835,30.29212 -0.13817,40.65864 -1.7271,6.76513 -2.57338,8.2427 -7.90555,13.8029 -6.54213,6.8219 -46.40813,35.19838 -58.60926,41.71787 -9.39049,5.01767 -22.5704,9.59601 -31.55614,10.96171 -10.74605,1.63327 -25.75889,2.34003 -25.75889,1.21267 z"
         style="opacity:0.172;fill:url(#linearGradient4246);fill-opacity:1;stroke:none;stroke-width:1;stroke-miterlimit:4;stroke-dasharray:none;stroke-opacity:1" />
      <path
         inkscape:connector-curvature="0"
         id="path4238"
         d="m -490.71361,456.72028 c -3.45838,-1.63609 -9.14049,-4.92157 -12.62691,-7.30106 -5.79715,-3.95659 -6.97591,-4.3598 -13.79146,-4.71756 l -7.45253,-0.3912 0.52139,-6.49542 c 0.66473,-8.28107 3.86751,-14.56458 10.12873,-19.87148 4.14099,-3.50983 5.42231,-4.05974 8.97146,-3.85033 4.56187,0.26917 8.92053,-2.69403 8.92053,-6.06456 0,-1.53004 5.76111,-5.72581 6.48444,-4.72257 0.12968,0.17986 1.30182,2.1453 2.60475,4.36763 1.30294,2.22234 7.58316,9.4096 13.95605,15.97169 l 11.58709,11.93107 -3.67911,2.50002 c -2.02351,1.37501 -3.67741,2.82455 -3.67533,3.22121 0.007,1.4248 4.02831,7.28719 4.99807,7.28719 0.54501,0 0.0522,1.59099 -1.09508,3.53554 -1.61546,2.73799 -2.74161,3.53553 -4.99228,3.53553 -1.59845,0 -4.3946,0.90744 -6.21368,2.01653 -4.47527,2.72858 -7.24648,2.5484 -14.64613,-0.95223 z"
         style="opacity:0.25500016;fill:url(#linearGradient4254);fill-opacity:1;stroke:none;stroke-width:1;stroke-miterlimit:4;stroke-dasharray:none;stroke-opacity:1" />
      <path
         inkscape:connector-curvature="0"
         id="path4258"
         d="m -978.52997,808.99771 c -4.40117,-3.1267 -7.43642,-7.9241 -7.43642,-11.75372 0,-1.78974 1.20616,-5.62545 2.68036,-8.52379 4.03958,-7.94201 4.44278,-11.1263 2.83788,-22.4127 -2.08884,-14.68974 -1.93314,-20.89634 0.60515,-24.12326 l 2.08277,-2.64782 -3.17006,-15.92369 c -4.60076,-23.11031 -6.50128,-30.0587 -12.68351,-46.37149 -6.7598,-17.83683 -8.0442,-23.31166 -9.553,-40.72094 -1.0622,-12.25697 -1.0012,-14.17322 0.6223,-19.53521 1.7779,-5.87187 2.1034,-6.21903 26.40173,-28.15314 51.98451,-46.92652 69.35598,-71.70545 70.2457,-100.19954 l 0.23336,-7.47377 4.28874,7.19918 c 2.3588,3.95955 5.73746,10.60845 7.50815,14.77533 2.91829,6.86751 3.26063,8.77624 3.66008,20.40661 0.24238,7.05675 -0.0665,17.13092 -0.68639,22.38704 l -1.12707,9.55658 -7.88314,8.0545 c -4.33574,4.42997 -21.38251,25.38581 -37.88173,46.56852 -24.94167,32.02168 -29.99857,39.0548 -29.99857,41.72191 0,1.76432 2.93418,12.10006 6.52039,22.9683 7.03056,21.30652 10.96494,36.1926 15.23044,57.62576 l 2.71091,13.62167 -1.72202,10.62199 c -2.52213,15.55736 -8.19335,36.88173 -11.37827,42.78343 -5.59405,10.36583 -15.14845,14.49233 -22.10778,9.54825 z"
         style="opacity:0.63700005;fill:url(#linearGradient4278);fill-opacity:1;stroke:none;stroke-width:1;stroke-miterlimit:4;stroke-dasharray:none;stroke-opacity:1" />
      <path
         inkscape:connector-curvature="0"
         id="path4262"
         d="m -976.42002,809.80879 c -3.89247,-1.69545 -8.16797,-6.72472 -9.02185,-10.61243 -0.46218,-2.10428 0.13434,-4.88007 2.01322,-9.3681 4.35962,-10.4137 4.59982,-12.41509 2.98427,-24.8648 -1.93436,-14.90652 -1.87854,-16.92531 0.61015,-22.06625 l 2.09155,-4.32056 -2.17265,-10.89812 c -4.25548,-21.34571 -8.0007,-35.46477 -13.04015,-49.15995 -4.50306,-12.2375 -6.38338,-18.39847 -8.53082,-27.9517 l -0.5786,-2.57392 16.74171,2.06884 16.74173,2.06885 4.97886,15.65736 c 8.15406,25.64262 12.85295,42.93675 16.60499,61.11423 3.96679,19.21789 3.96278,19.3594 -1.19391,42.17775 -5.57673,24.67698 -10.05499,34.24604 -17.77618,37.98381 -5.1608,2.4983 -6.24898,2.57586 -10.45232,0.74499 z"
         style="opacity:0.63700005;fill:url(#linearGradient4270);fill-opacity:1;stroke:none;stroke-width:1;stroke-miterlimit:4;stroke-dasharray:none;stroke-opacity:1" />
    </g>
  </g>
</svg>
