<?xml version="1.0" encoding="UTF-8" standalone="no"?>
<!-- Created with Inkscape (http://www.inkscape.org/) -->

<svg
   xmlns:dc="http://purl.org/dc/elements/1.1/"
   xmlns:cc="http://creativecommons.org/ns#"
   xmlns:rdf="http://www.w3.org/1999/02/22-rdf-syntax-ns#"
   xmlns:svg="http://www.w3.org/2000/svg"
   xmlns="http://www.w3.org/2000/svg"
   xmlns:xlink="http://www.w3.org/1999/xlink"
   xmlns:sodipodi="http://sodipodi.sourceforge.net/DTD/sodipodi-0.dtd"
   xmlns:inkscape="http://www.inkscape.org/namespaces/inkscape"
   width="40.096756mm"
   height="14.111111mm"
   viewBox="0 0 142.07512 49.999999"
   id="svg6695"
   version="1.1"
   inkscape:version="0.91 r13725"
   sodipodi:docname="owlSprite1.svg">
  <defs
     id="defs6697">
    <linearGradient
       inkscape:collect="always"
       xlink:href="#linearGradient4838"
       id="linearGradient4844"
       x1="661.85199"
       y1="791.43982"
       x2="684.47937"
       y2="770.22662"
       gradientUnits="userSpaceOnUse" />
    <linearGradient
       inkscape:collect="always"
       id="linearGradient4838">
      <stop
         style="stop-color:#655245;stop-opacity:1;"
         offset="0"
         id="stop4840" />
      <stop
         style="stop-color:#655245;stop-opacity:0;"
         offset="1"
         id="stop4842" />
    </linearGradient>
    <linearGradient
       inkscape:collect="always"
       xlink:href="#linearGradient4838"
       id="linearGradient4836"
       x1="652.65955"
       y1="747.59918"
       x2="651.24536"
       y2="718.60779"
       gradientUnits="userSpaceOnUse" />
    <linearGradient
       inkscape:collect="always"
       xlink:href="#linearGradient4838"
       id="linearGradient4828"
       x1="619.42554"
       y1="721.43622"
       x2="613.76868"
       y2="699.51593"
       gradientUnits="userSpaceOnUse" />
    <linearGradient
       inkscape:collect="always"
       xlink:href="#linearGradient4838"
       id="linearGradient4852"
       x1="704.27838"
       y1="811.23877"
       x2="724.78442"
       y2="797.09668"
       gradientUnits="userSpaceOnUse" />
    <linearGradient
       inkscape:collect="always"
       xlink:href="#linearGradient4838"
       id="linearGradient4860"
       x1="745.99768"
       y1="820.43115"
       x2="756.60425"
       y2="809.11749"
       gradientUnits="userSpaceOnUse" />
    <linearGradient
       inkscape:collect="always"
       xlink:href="#linearGradient4838"
       id="linearGradient4868"
       x1="770.7464"
       y1="814.77435"
       x2="779.93878"
       y2="806.28906"
       gradientUnits="userSpaceOnUse" />
    <linearGradient
       inkscape:collect="always"
       xlink:href="#linearGradient4838"
       id="linearGradient4896"
       x1="799.03064"
       y1="827.50226"
       x2="790.54541"
       y2="799.21796"
       gradientUnits="userSpaceOnUse" />
    <linearGradient
       inkscape:collect="always"
       xlink:href="#linearGradient4838"
       id="linearGradient4876"
       x1="803.98041"
       y1="826.79517"
       x2="797.61646"
       y2="806.99615"
       gradientUnits="userSpaceOnUse" />
    <linearGradient
       inkscape:collect="always"
       xlink:href="#linearGradient5135"
       id="linearGradient5141"
       x1="538"
       y1="852.36218"
       x2="534"
       y2="876.36218"
       gradientUnits="userSpaceOnUse" />
    <linearGradient
       inkscape:collect="always"
       id="linearGradient5135">
      <stop
         style="stop-color:#26120f;stop-opacity:1;"
         offset="0"
         id="stop5137" />
      <stop
         style="stop-color:#26120f;stop-opacity:0;"
         offset="1"
         id="stop5139" />
    </linearGradient>
    <linearGradient
       inkscape:collect="always"
       xlink:href="#linearGradient5247"
       id="linearGradient5253"
       x1="1128.5"
       y1="805.36218"
       x2="1006"
       y2="832.36218"
       gradientUnits="userSpaceOnUse" />
    <linearGradient
       inkscape:collect="always"
       id="linearGradient5247">
      <stop
         style="stop-color:#645141;stop-opacity:1;"
         offset="0"
         id="stop5249" />
      <stop
         style="stop-color:#645141;stop-opacity:0;"
         offset="1"
         id="stop5251" />
    </linearGradient>
    <linearGradient
       inkscape:collect="always"
       xlink:href="#linearGradient5247"
       id="linearGradient5233"
       x1="1009"
       y1="801.86218"
       x2="1009"
       y2="811.86218"
       gradientUnits="userSpaceOnUse" />
    <linearGradient
       inkscape:collect="always"
       xlink:href="#linearGradient5247"
       id="linearGradient5245"
       x1="1206"
       y1="872.36218"
       x2="1185"
       y2="884.36218"
       gradientUnits="userSpaceOnUse" />
    <linearGradient
       inkscape:collect="always"
       xlink:href="#linearGradient5212"
       id="linearGradient5220"
       x1="1088.9445"
       y1="799.21796"
       x2="1089.1212"
       y2="791.43982"
       gradientUnits="userSpaceOnUse" />
    <linearGradient
       inkscape:collect="always"
       id="linearGradient5212">
      <stop
         style="stop-color:#d2c5ba;stop-opacity:1;"
         offset="0"
         id="stop5214" />
      <stop
         style="stop-color:#d2c5ba;stop-opacity:0;"
         offset="1"
         id="stop5216" />
    </linearGradient>
    <linearGradient
       inkscape:collect="always"
       xlink:href="#linearGradient5212"
       id="linearGradient5218"
       x1="1113.7799"
       y1="820.64008"
       x2="1113.7104"
       y2="810.03345"
       gradientUnits="userSpaceOnUse" />
    <linearGradient
       inkscape:collect="always"
       xlink:href="#linearGradient5212"
       id="linearGradient5210"
       x1="1230.3658"
       y1="865.68597"
       x2="1233.9014"
       y2="843.05859"
       gradientUnits="userSpaceOnUse" />
    <linearGradient
       inkscape:collect="always"
       xlink:href="#linearGradient5267"
       id="linearGradient5273"
       x1="1286.9343"
       y1="828.20935"
       x2="1354.8167"
       y2="862.15045"
       gradientUnits="userSpaceOnUse" />
    <linearGradient
       inkscape:collect="always"
       id="linearGradient5267">
      <stop
         style="stop-color:#372d24;stop-opacity:1;"
         offset="0"
         id="stop5269" />
      <stop
         style="stop-color:#372d24;stop-opacity:0;"
         offset="1"
         id="stop5271" />
    </linearGradient>
    <linearGradient
       inkscape:collect="always"
       xlink:href="#linearGradient4838"
       id="linearGradient4379"
       x1="385"
       y1="767.36218"
       x2="387.5"
       y2="755.57648"
       gradientUnits="userSpaceOnUse" />
    <linearGradient
       inkscape:collect="always"
       xlink:href="#linearGradient4838"
       id="linearGradient4403"
       x1="391.42856"
       y1="724.86218"
       x2="391.78571"
       y2="716.64795"
       gradientUnits="userSpaceOnUse" />
    <linearGradient
       inkscape:collect="always"
       xlink:href="#linearGradient4838"
       id="linearGradient4287"
       x1="623.2641"
       y1="954.37738"
       x2="607.10168"
       y2="944.27588"
       gradientUnits="userSpaceOnUse" />
    <linearGradient
       inkscape:collect="always"
       xlink:href="#linearGradient4838"
       id="linearGradient4279"
       x1="575.78693"
       y1="987.71246"
       x2="557.60419"
       y2="973.57031"
       gradientUnits="userSpaceOnUse" />
    <linearGradient
       inkscape:collect="always"
       xlink:href="#linearGradient4838"
       id="linearGradient4295"
       x1="523.25903"
       y1="1007.9155"
       x2="504.06613"
       y2="991.75305"
       gradientUnits="userSpaceOnUse" />
    <linearGradient
       inkscape:collect="always"
       xlink:href="#linearGradient4838"
       id="linearGradient4303"
       x1="468.71078"
       y1="1000.8444"
       x2="459.61942"
       y2="988.7226"
       gradientUnits="userSpaceOnUse" />
    <linearGradient
       inkscape:collect="always"
       xlink:href="#linearGradient4838"
       id="linearGradient4311"
       x1="432.34528"
       y1="972.56018"
       x2="421.23361"
       y2="953.36725"
       gradientUnits="userSpaceOnUse" />
    <linearGradient
       inkscape:collect="always"
       xlink:href="#linearGradient4838"
       id="linearGradient4331"
       x1="422.24377"
       y1="932.15405"
       x2="414.16254"
       y2="915.99164"
       gradientUnits="userSpaceOnUse" />
    <linearGradient
       inkscape:collect="always"
       xlink:href="#linearGradient4838"
       id="linearGradient4339"
       x1="404.061"
       y1="896.79871"
       x2="399.01025"
       y2="879.6261"
       gradientUnits="userSpaceOnUse" />
    <linearGradient
       inkscape:collect="always"
       xlink:href="#linearGradient4838"
       id="linearGradient4347"
       x1="395.9798"
       y1="859.4231"
       x2="394.96964"
       y2="845.28094"
       gradientUnits="userSpaceOnUse" />
    <linearGradient
       inkscape:collect="always"
       xlink:href="#linearGradient4838"
       id="linearGradient4355"
       x1="402.04071"
       y1="837.19971"
       x2="399.01025"
       y2="816.99664"
       gradientUnits="userSpaceOnUse" />
    <linearGradient
       inkscape:collect="always"
       xlink:href="#linearGradient4838"
       id="linearGradient4363"
       x1="415.1727"
       y1="808.91547"
       x2="415.1727"
       y2="795.78345"
       gradientUnits="userSpaceOnUse" />
    <linearGradient
       inkscape:collect="always"
       xlink:href="#linearGradient4838"
       id="linearGradient4371"
       x1="397.85715"
       y1="790.93365"
       x2="401.42856"
       y2="770.93365"
       gradientUnits="userSpaceOnUse" />
    <linearGradient
       inkscape:collect="always"
       xlink:href="#linearGradient4838"
       id="linearGradient4387"
       x1="388.57144"
       y1="751.64795"
       x2="389.28571"
       y2="742.00507"
       gradientUnits="userSpaceOnUse" />
    <linearGradient
       inkscape:collect="always"
       xlink:href="#linearGradient4838"
       id="linearGradient4395"
       x1="389.28571"
       y1="738.43365"
       x2="388.57144"
       y2="729.86218"
       gradientUnits="userSpaceOnUse" />
    <linearGradient
       inkscape:collect="always"
       xlink:href="#linearGradient4838"
       id="linearGradient4411"
       x1="385.71429"
       y1="710.21936"
       x2="386.78571"
       y2="702.71936"
       gradientUnits="userSpaceOnUse" />
    <linearGradient
       inkscape:collect="always"
       xlink:href="#linearGradient4838"
       id="linearGradient4419"
       x1="392.14285"
       y1="694.86218"
       x2="396.07144"
       y2="687.00507"
       gradientUnits="userSpaceOnUse" />
    <linearGradient
       inkscape:collect="always"
       xlink:href="#linearGradient4838"
       id="linearGradient4427"
       x1="396.78571"
       y1="679.86218"
       x2="401.07144"
       y2="672.00507"
       gradientUnits="userSpaceOnUse" />
    <linearGradient
       inkscape:collect="always"
       xlink:href="#linearGradient5025"
       id="linearGradient5031"
       x1="108"
       y1="1310.3622"
       x2="69"
       y2="1329.3622"
       gradientUnits="userSpaceOnUse" />
    <linearGradient
       inkscape:collect="always"
       id="linearGradient5025">
      <stop
         style="stop-color:#3f2f24;stop-opacity:1;"
         offset="0"
         id="stop5027" />
      <stop
         style="stop-color:#3f2f24;stop-opacity:0;"
         offset="1"
         id="stop5029" />
    </linearGradient>
  </defs>
  <sodipodi:namedview
     id="base"
     pagecolor="#ffffff"
     bordercolor="#666666"
     borderopacity="1.0"
     inkscape:pageopacity="0.0"
     inkscape:pageshadow="2"
     inkscape:zoom="0.35"
     inkscape:cx="502.58918"
     inkscape:cy="17.452273"
     inkscape:document-units="px"
     inkscape:current-layer="layer1"
     showgrid="false"
     fit-margin-top="0"
     fit-margin-left="0"
     fit-margin-right="0"
     fit-margin-bottom="0"
     inkscape:window-width="1366"
     inkscape:window-height="704"
     inkscape:window-x="0"
     inkscape:window-y="27"
     inkscape:window-maximized="1" />
  <metadata
     id="metadata6700">
    <rdf:RDF>
      <cc:Work
         rdf:about="">
        <dc:format>image/svg+xml</dc:format>
        <dc:type
           rdf:resource="http://purl.org/dc/dcmitype/StillImage" />
        <dc:title></dc:title>
      </cc:Work>
    </rdf:RDF>
  </metadata>
  <g
     inkscape:label="Layer 1"
     inkscape:groupmode="layer"
     id="layer1"
     transform="translate(195.99977,-782.42576)">
    <g
       id="g5074"
       transform="matrix(0.23497288,0,0,0.2352244,-149.94501,636.61894)"
       inkscape:export-xdpi="90"
       inkscape:export-ydpi="90">
      <g
         transform="matrix(1.0001968,0,0,0.51155147,-282.83313,282.28244)"
         id="g5143">
        <g
           id="g5093"
           transform="translate(-148.49242,154.14928)">
          <path
             sodipodi:nodetypes="aaaaaaacaacaccacacaacaacaaaaaaacaaaacaacaacaaacaaaaaaa"
             inkscape:connector-curvature="0"
             id="path4149"
             d="m 684.64285,632.00506 c 8.04648,1.86163 16.67126,2.48612 23.92857,6.42857 7.03683,3.82268 12.90059,9.78157 17.85715,16.07143 6.95677,8.82811 10.92061,19.65279 16.07143,29.64285 11.66267,22.61985 21.66585,46.07848 33.57142,68.57143 8.65539,16.35246 17.84512,32.43133 27.5,48.21429 5.64661,9.23059 10.64738,19.02289 17.78051,27.15962 5.27261,6.01444 18.18275,15.65736 18.18275,15.65736 0,0 -14.27714,-5.09891 -20.45559,-9.34391 -4.95531,-3.40462 -8.95871,-8.06902 -12.87945,-12.62691 -1.21889,-1.41696 -3.28299,-4.54568 -3.28299,-4.54568 0,0 5.15596,11.93317 8.5863,17.42513 3.49666,5.59813 12.12183,15.65736 12.12183,15.65736 l 15.15228,9.59645 c 0,0 -18.52693,-8.91935 -27.02158,-14.64721 -7.23851,-4.88086 -20.20305,-16.66752 -20.20305,-16.66752 0,0 2.92232,7.97005 5.05077,11.61676 5.63519,9.65486 20.20305,26.76904 20.20305,26.76904 0,0 -24.39451,-17.20992 -35.1028,-27.52666 -4.12941,-3.97842 -7.30783,-8.84123 -11.11168,-13.13198 -1.06687,-1.20343 -3.283,-3.53553 -3.283,-3.53553 0,0 -1.43152,2.43069 -1.51523,3.78807 -0.3054,4.95218 3.30532,9.45662 3.78808,14.39467 0.78783,8.05857 -1.51523,24.24366 -1.51523,24.24366 0,0 -3.57738,-9.57237 -6.566,-13.63705 -4.16312,-5.66207 -10.72772,-9.14917 -15.40482,-14.39468 -3.48465,-3.90814 -7.91571,-7.58939 -9.34391,-12.62691 -1.35955,-4.79539 3.70162,-10.55283 1.26269,-14.89975 -0.64473,-1.1491 -2.25915,-2.09477 -3.53554,-1.76776 -2.5787,0.66066 -3.39789,4.16417 -4.54568,6.56599 -3.21586,6.72939 -2.7601,14.9083 -6.31346,21.46574 -2.90149,5.35447 -11.86929,13.8896 -11.86929,13.8896 0,0 -2.53259,-8.63206 -4.54568,-12.62691 -2.86828,-5.69192 -8.56715,-9.87122 -10.60661,-15.9099 -1.70035,-5.0346 -1.46218,-10.61518 -1.01015,-15.9099 0.30916,-3.6212 2.52866,-6.97224 2.52538,-10.60661 -0.002,-2.16424 -1.51523,-6.31345 -1.51523,-6.31345 0,0 -7.30792,2.72286 -10.10152,5.3033 -4.75215,4.38953 -5.5449,12.088 -10.35407,16.41498 -4.39387,3.95332 -15.9099,7.82868 -15.9099,7.82868 0,0 -5.27331,-12.78679 -7.07107,-19.44543 -1.60535,-5.94602 -4.29491,-12.10753 -3.28299,-18.18275 0.82348,-4.94392 7.3236,-13.13198 7.3236,-13.13198 0,0 -9.24774,7.56009 -14.64721,7.07107 -3.84003,-0.34778 -7.03119,-3.73339 -9.34391,-6.81853 -3.27419,-4.36773 -4.90399,-9.98519 -5.55584,-15.40483 -0.56615,-4.7071 1.51523,-14.14214 1.51523,-14.14214 0,0 -8.07466,1.96468 -12.12183,1.51523 -4.44607,-0.49375 -8.95101,-1.99634 -12.62691,-4.54568 -2.99364,-2.07617 -4.836,-5.4568 -7.07106,-8.33376 -8.29686,-10.67971 -23.06364,-19.56527 -23.48605,-33.0825 -0.7486,-23.95564 19.36382,-45.89721 37.88072,-61.11423 7.01817,-5.76747 16.45426,-8.83611 25.50635,-9.59644 16.03712,-1.34704 31.71179,5.59773 47.39122,9.22531 z"
             style="fill:#9b816f;fill-opacity:1;fill-rule:evenodd;stroke:#000000;stroke-width:1px;stroke-linecap:butt;stroke-linejoin:miter;stroke-opacity:1" />
          <g
             id="g5033">
            <path
               style="opacity:0.74500002;fill:url(#linearGradient4844);fill-opacity:1;stroke:none"
               d="m 660.08813,815.27052 c -1.29578,-2.50478 -5.25197,-13.91026 -7.25129,-20.90507 -4.03545,-14.11841 -2.77764,-17.98785 10.73091,-33.01183 8.32443,-9.25829 12.44707,-15.09868 16.7265,-23.69583 l 3.92782,-7.89078 7.14333,2.28 c 5.96991,1.90546 22.37869,7.90623 22.83598,8.35122 0.21212,0.20641 -3.72827,18.49481 -5.42914,25.19803 -1.67403,6.59747 -8.16039,26.69828 -9.07055,28.10906 -0.36757,0.56975 -0.89673,-0.38453 -1.48415,-2.67653 -1.04466,-4.07607 -1.04889,-4.07639 -7.97142,-0.60456 -4.58758,2.30079 -6.24727,4.28028 -10.46756,12.48456 -3.31786,6.44995 -4.56541,7.57999 -12.32762,11.16635 -6.05842,2.79916 -6.49636,2.87026 -7.36281,1.19538 z"
               id="path4806"
               inkscape:connector-curvature="0" />
            <path
               style="opacity:0.74500002;fill:url(#linearGradient4836);fill-opacity:1;stroke:none"
               d="m 640.32504,772.74353 c -3.17116,-1.40491 -7.8344,-7.08218 -9.56583,-11.64593 -1.81236,-4.77703 -2.43237,-10.96571 -1.74327,-17.40043 0.48741,-4.55138 0.69087,-4.94511 5.61196,-10.86042 7.07852,-8.50861 7.93415,-9.81368 13.24542,-20.20277 l 4.68618,-9.16639 11.931,11.33442 c 6.56205,6.23393 13.27461,12.01987 14.9168,12.85765 3.48979,1.78037 3.53249,1.47656 -1.59539,11.3527 -3.9903,7.68519 -8.25452,13.33358 -17.14146,22.70558 -9.17552,9.67634 -15.5696,13.14142 -20.34541,11.02559 z"
               id="path4808"
               inkscape:connector-curvature="0" />
            <path
               style="opacity:0.74500002;fill:url(#linearGradient4828);fill-opacity:1;stroke:none"
               d="m 611.03811,737.23946 c -4.62554,-1.68577 -7.50172,-3.87158 -10.65422,-8.09689 -1.54153,-2.06612 -6.69249,-7.86671 -11.44657,-12.89022 -12.59534,-13.30914 -13.98599,-15.80212 -13.98599,-25.07239 0,-13.19439 7.54751,-28.47816 21.11204,-42.75205 3.25008,-3.42004 6.15245,-6.06795 6.44972,-5.88423 0.29726,0.18372 8.19159,10.76156 17.54296,23.50631 14.53493,19.8093 18.03728,24.12928 24.13266,29.76649 l 7.13018,6.59423 -4.2228,8.25501 c -5.4627,10.6789 -8.71027,15.54968 -14.63911,21.95613 l -4.82698,5.21583 -6.71712,0.27629 c -4.99947,0.20564 -7.52457,-0.018 -9.87477,-0.87451 z"
               id="path4810"
               inkscape:connector-curvature="0" />
            <path
               style="opacity:0.74500002;fill:url(#linearGradient4852);fill-opacity:1;stroke:none"
               d="m 711.99671,847.57385 c -0.21201,-0.36673 -0.94824,-2.41687 -1.63608,-4.55587 -1.76879,-5.50053 -2.81807,-7.36917 -7.81585,-13.91919 -5.61451,-7.35827 -6.32633,-9.4423 -6.23494,-18.25417 0.07,-6.74662 0.19168,-7.28539 2.65234,-11.74212 4.38442,-7.941 11.06225,-29.7838 15.32577,-50.12972 0.85572,-4.08354 1.6356,-7.51796 1.73307,-7.63203 0.5631,-0.65899 15.82171,5.94675 18.69993,8.09554 l 3.43798,2.56669 0.57025,9.62183 c 0.7469,12.60219 0.77786,37.54286 0.0529,42.60208 l -0.57159,3.98886 -2.02338,-0.76373 c -1.58186,-0.59709 -2.2932,-0.54172 -3.26,0.25377 -2.10103,1.72874 -5.05058,9.21781 -6.9483,17.64212 -1.36624,6.065 -2.40638,8.93138 -4.21761,11.62277 -3.30297,4.90805 -9.29519,11.41495 -9.76448,10.60317 z"
               id="path4812"
               inkscape:connector-curvature="0" />
            <path
               style="opacity:0.74500002;fill:url(#linearGradient4860);fill-opacity:1;stroke:none"
               d="m 765.18617,856.58073 c -2.09934,-4.50835 -3.41245,-6.14103 -9.13522,-11.3585 -17.17261,-15.65633 -19.8721,-19.76084 -17.72971,-26.95766 2.44853,-8.22527 3.44927,-33.88836 2.123,-54.44255 -0.33878,-5.25027 -0.50369,-9.65893 -0.36648,-9.79703 0.32514,-0.32724 8.3365,6.17562 8.90095,7.22494 0.23796,0.44238 0.82467,4.3045 1.30379,8.5825 1.15511,10.31383 3.86345,25.02659 5.73162,31.13641 0.82842,2.70932 3.34237,8.78067 5.58657,13.4919 3.64404,7.6499 4.04549,8.9353 3.75426,12.02081 -0.24426,2.58788 0.13439,4.67394 1.50877,8.31211 1.58113,4.18547 1.8252,5.89671 1.76494,12.37437 -0.0385,4.13447 -0.27711,9.12836 -0.53033,11.09754 l -0.4604,3.58033 -2.45176,-5.26517 z"
               id="path4814"
               inkscape:connector-curvature="0" />
            <path
               style="opacity:0.74500002;fill:url(#linearGradient4868);fill-opacity:1;stroke:none"
               d="m 799.31784,852.9353 c -12.13784,-9.39749 -18.10453,-14.90086 -23.77098,-21.92512 -2.35876,-2.92397 -5.53828,-6.70203 -7.0656,-8.39568 -2.88925,-3.20391 -7.81743,-12.97433 -10.37776,-20.57455 -2.37278,-7.04349 -4.25849,-17.23421 -6.78819,-36.68468 l -0.39836,-3.06295 6.92529,5.7146 c 3.80891,3.14303 7.4211,5.71459 8.0271,5.71459 0.77719,0 1.48358,1.51036 2.39766,5.12653 3.92555,15.52987 8.2847,25.75356 17.86851,41.90777 2.30347,3.88266 5.23896,9.66974 6.52333,12.86019 2.52235,6.2657 6.15964,12.0781 13.29531,21.24602 2.49728,3.2085 4.28096,5.83363 3.96375,5.83363 -0.31722,0 -5.08724,-3.49216 -10.60006,-7.76035 z"
               id="path4816"
               inkscape:connector-curvature="0" />
            <path
               style="opacity:0.74500002;fill:url(#linearGradient4896);fill-opacity:1;stroke:none"
               d="m 815.67345,846.6064 c -3.08501,-1.90315 -9.48732,-6.69044 -14.22736,-10.63842 -8.42167,-7.01441 -8.74111,-7.38671 -14.00459,-16.32217 -8.2198,-13.95422 -12.66283,-23.81188 -15.87334,-35.21789 -1.57184,-5.58428 -2.68264,-10.4368 -2.46845,-10.78338 0.2142,-0.34657 1.93603,-0.63013 3.82629,-0.63013 l 3.43684,0 4.58006,8.77469 c 2.51903,4.82609 8.22199,14.61068 12.67325,21.74354 4.45126,7.13286 9.47453,15.99172 11.16283,19.68635 4.17378,9.13379 6.88812,13.62459 12.38037,20.483 2.56515,3.2032 4.54225,5.94565 4.39356,6.09434 -0.14869,0.14869 -2.79444,-1.28678 -5.87946,-3.18993 z"
               id="path4818"
               inkscape:connector-curvature="0" />
            <path
               style="opacity:0.74500002;fill:url(#linearGradient4876);fill-opacity:1;stroke:none"
               d="m 827.0349,837.77252 c -6.23332,-2.92772 -12.39454,-7.60132 -17.06123,-12.94181 -4.60288,-5.26747 -20.25004,-30.21432 -26.55751,-42.34164 -2.64994,-5.09502 -4.81807,-9.48687 -4.81807,-9.75967 0,-0.2728 1.65155,-0.39983 3.67011,-0.28228 l 3.67011,0.21373 2.43822,4.24265 c 10.21332,17.77179 25.64959,43.02068 29.10402,47.60506 2.29794,3.0496 6.34233,7.40474 8.98753,9.67809 6.72666,5.78105 6.96335,6.00852 6.19842,5.95681 -0.37502,-0.0254 -2.90924,-1.09227 -5.6316,-2.37094 z"
               id="path4820"
               inkscape:connector-curvature="0" />
          </g>
          <g
             id="g5081">
            <path
               style="opacity:0.74500002;fill:#dad3bb;fill-opacity:1;stroke:none"
               d="m 749.21289,805.00954 -8.13173,-2.63954 0.25717,-8.09964 c 0.14145,-4.45481 0.37323,-8.22536 0.51508,-8.37902 0.14184,-0.15365 2.77953,0.43863 5.86153,1.31619 l 5.60363,1.59557 0.48939,3.28 c 0.43514,2.91639 2.82725,11.06915 4.23009,14.41693 0.67006,1.59906 0.71777,1.60712 -8.82516,-1.49049 z"
               id="path5057"
               inkscape:connector-curvature="0" />
            <path
               style="opacity:0.74500002;fill:#dad3bb;fill-opacity:1;stroke:none"
               d="m 769.135,810.61085 c -4.40474,-1.09491 -8.26337,-2.26889 -8.57474,-2.60884 -1.45374,-1.58719 -6.20998,-17.65845 -5.45068,-18.41775 0.32258,-0.32257 14.30104,3.07076 16.55395,4.01854 0.87504,0.36813 1.59099,1.10636 1.59099,1.64052 0,0.53415 1.75009,4.5371 3.88909,8.89544 2.13899,4.35835 3.88908,8.06471 3.88908,8.23636 0,0.74624 -4.45669,0.0854 -11.89769,-1.76427 z"
               id="path5059"
               inkscape:connector-curvature="0" />
            <path
               style="opacity:0.74500002;fill:#dad3bb;fill-opacity:1;stroke:none"
               d="m 780.69704,794.04765 c -5.23352,-1.25761 -6.49798,-1.82966 -7.2126,-3.26305 -0.4766,-0.95595 -0.80285,-1.7745 -0.72501,-1.819 0.0779,-0.0445 2.93463,0.10395 6.34842,0.32987 l 6.20689,0.41078 1.78814,3.0052 c 2.06461,3.46984 2.28339,3.4242 -6.40584,1.3362 z"
               id="path5061"
               inkscape:connector-curvature="0" />
            <path
               style="opacity:0.74500002;fill:#dad3bb;fill-opacity:1;stroke:none"
               d="m 782.40968,780.79323 c -1.97211,-3.92988 -3.48645,-7.23922 -3.3652,-7.35408 0.12124,-0.11486 1.65234,-0.48999 3.40243,-0.83362 l 3.18198,-0.62478 4.32526,7.44853 4.32526,7.44854 -2.55749,0.48958 c -5.55267,1.06294 -5.43975,1.14266 -9.31224,-6.57417 z"
               id="path5063"
               inkscape:connector-curvature="0" />
            <path
               style="opacity:0.74500002;fill:#dad3bb;fill-opacity:1;stroke:none"
               d="m 745.95803,777.50156 -5.02263,-2.49724 -0.44914,-8.86187 c -0.24703,-4.87403 -0.30222,-9.0088 -0.12264,-9.18838 0.33071,-0.33071 8.14947,5.27948 8.90698,6.39101 0.48033,0.70482 2.3098,16.10812 1.95186,16.43375 -0.13299,0.12098 -2.50199,-0.90379 -5.26443,-2.27727 z"
               id="path5065"
               inkscape:connector-curvature="0" />
            <path
               style="opacity:0.74500002;fill:#dad3bb;fill-opacity:1;stroke:none"
               d="m 728.70679,779.53908 c -5.25027,-1.85449 -11.77333,-4.32167 -14.49569,-5.48262 -5.41334,-2.30852 -5.42241,-2.32778 -3.85117,-8.1741 l 0.70164,-2.61068 6.52451,2.71688 c 3.58849,1.49428 9.94515,4.31887 14.12592,6.27687 l 7.60139,3.56 0,3.58165 c 0,1.96991 -0.23864,3.56414 -0.53033,3.54273 -0.29168,-0.0214 -4.826,-1.55624 -10.07627,-3.41073 z"
               id="path5067"
               inkscape:connector-curvature="0" />
            <path
               style="opacity:0.74500002;fill:#dad3bb;fill-opacity:1;stroke:none"
               d="m 703.01483,757.88629 c -6.95885,-3.13437 -19.73702,-10.41492 -23.38598,-13.32449 l -1.96936,-1.57032 2.00198,-4.08196 c 1.39571,-2.8458 2.32633,-3.97928 3.07301,-3.74292 6.16954,1.953 29.80033,10.20124 30.10828,10.5092 0.31251,0.3125 -2.32558,14.5642 -2.80998,15.18027 -0.0611,0.0777 -3.21914,-1.25874 -7.01795,-2.96978 z"
               id="path5069"
               inkscape:connector-curvature="0" />
            <path
               style="opacity:0.74500002;fill:#dad3bb;fill-opacity:1;stroke:none"
               d="m 666.4814,747.49277 c -2.67568,-1.84901 -26.75676,-18.82502 -27.45145,-19.35196 -0.1253,-0.095 1.08099,-2.09023 2.68066,-4.43374 l 2.90848,-4.26093 12.80781,10.26657 c 7.0443,5.64661 14.02212,11.07016 15.50627,12.05232 l 2.69845,1.78575 -2.13421,3.10197 c -1.17381,1.70608 -2.51667,3.08778 -2.98412,3.07044 -0.46745,-0.0173 -2.28181,-1.02103 -4.03189,-2.23042 z"
               id="path5071"
               inkscape:connector-curvature="0" />
            <path
               style="opacity:0.74500002;fill:#dad3bb;fill-opacity:1;stroke:none"
               d="m 694.04016,781.40037 c -4.08499,-2.43212 -11.87729,-7.528 -17.31623,-11.32418 -12.07154,-8.42548 -12.37176,-8.65527 -12.33176,-9.43927 0.0177,-0.34604 1.58353,-2.33226 3.47973,-4.41383 l 3.44764,-3.78467 3.061,2.08607 c 5.1573,3.5147 19.68705,11.89256 26.21876,15.11774 3.40295,1.68029 6.18718,3.2372 6.18718,3.4598 0,1.29825 -4.10225,12.31478 -4.65419,12.49876 -0.36568,0.12189 -4.00714,-1.76829 -8.09213,-4.20042 z"
               id="path5073"
               inkscape:connector-curvature="0" />
            <path
               style="opacity:0.74500002;fill:#dad3bb;fill-opacity:1;stroke:none"
               d="m 603.90572,721.85736 -24.03836,-15.10212 -2.41323,-4.39778 c -1.96727,-3.58509 -2.47642,-5.3826 -2.75523,-9.72711 -0.28412,-4.42711 -0.17062,-5.26355 0.67041,-4.94082 3.33397,1.27936 60.70649,39.6489 60.70649,40.59923 0,0.57287 -7.23347,8.74197 -7.70744,8.70438 -0.23336,-0.0185 -11.24155,-6.82961 -24.46264,-15.13578 z"
               id="path5079"
               inkscape:connector-curvature="0" />
          </g>
        </g>
        <path
           style="opacity:0.62699998;fill:url(#linearGradient5141);fill-opacity:1;stroke:none"
           d="m 611.63552,916.24584 c -20.02137,-2.6512 -38.50072,-7.97351 -60.82086,-17.51727 -24.64934,-10.53969 -35.09333,-16.40487 -65.90016,-37.00848 -8.381,-5.60521 -23.79736,-15.08839 -34.25858,-21.07374 -10.46122,-5.98534 -19.3932,-11.25434 -19.84884,-11.70888 -1.82437,-1.81996 7.84299,-16.90711 17.46766,-27.26051 22.62608,-24.33921 37.78646,-28.29656 72.12891,-18.82801 8.12247,2.23945 19.02629,4.94787 24.23072,6.01872 11.44719,2.35536 17.42312,5.24834 24.83594,12.02324 8.31212,7.59682 12.83903,15.22215 29.66969,49.977 8.38993,17.325 18.82797,38.6457 23.19563,47.37934 4.36766,8.73364 7.57191,16.22574 7.12055,16.64911 -1.00104,0.93895 -13.67376,1.8986 -17.82066,1.34948 z"
           id="path5133"
           inkscape:connector-curvature="0" />
      </g>
      <g
         transform="matrix(0.99928709,0,0,0.9982165,-1098.3167,-135.87418)"
         id="g5275">
        <path
           style="fill:#9b816f;fill-opacity:1;fill-rule:evenodd;stroke:#000000;stroke-width:1px;stroke-linecap:butt;stroke-linejoin:miter;stroke-opacity:1"
           d="m 909,811.93363 c 11.66849,0.11905 23.3906,1.89316 35,0.71429 31.08871,-3.1569 60.6657,-15.22607 91.4286,-20.71429 34.2777,-6.11528 68.9243,-10.11688 103.5714,-13.57143 41.5585,-4.14365 83.4314,-4.53101 125,-8.57142 30.3342,-2.94844 60.4963,-15.39477 90.7143,-11.42858 15.0364,1.97357 29.7314,8.42829 42.1428,17.14286 7.8647,5.5221 16.0415,12.38302 19.2858,21.42857 5.4711,15.25477 -2.7931,32.37825 -2.1429,48.57143 0.231,5.75412 2.0868,11.38438 2.1429,17.14286 0.044,4.54859 -0.013,9.24853 -1.4286,13.57143 -2.0589,6.28691 -6.1651,11.75235 -10,17.14285 -1.2725,1.78867 -2.5832,3.61432 -4.2857,5 -6.1162,4.97803 -13.0776,9.46165 -20.7143,11.42858 -27.899,7.18573 -57.8186,3.38513 -86.4286,0 -48.632,-5.75415 -95.4552,-21.98766 -142.8571,-34.28572 -41.1547,-10.67725 -80.9917,-26.86981 -122.8572,-34.28571 -20.9301,-3.70748 -42.40809,-3.018 -63.5714,-5 -10.96889,-1.02727 -22.43456,-0.002 -32.85714,-3.57143 -6.87662,-2.35513 -12.95859,-6.81008 -18.57143,-11.42857 C 909.31871,818.54287 904,811.93363 904,811.93363 c 0,0 3.33342,-0.017 5,0 z"
           id="path4238"
           inkscape:connector-curvature="0"
           sodipodi:nodetypes="aaaaaaaaaaaaaaaaaaaaca" />
        <path
           style="fill:#82796b;fill-opacity:1;fill-rule:evenodd;stroke:#000000;stroke-width:1px;stroke-linecap:butt;stroke-linejoin:miter;stroke-opacity:1"
           d="m 1410.6071,787.82649 c -4.9023,-3.60009 -11.7794,-3.51501 -17.8571,-3.75 -8.2777,-0.32005 -17.2318,-0.48682 -24.6429,3.21428 -6.703,3.34751 -11.4708,9.89652 -15.7142,16.07143 -4.9329,7.17805 -8.3574,15.41761 -10.8929,23.75 -1.9486,6.40355 -3.223,13.12799 -3.2143,19.82144 0.01,5.48975 0.7516,11.10955 2.6786,16.24999 2.3831,6.3571 6.6905,11.85321 10.7143,17.32143 2.4758,3.36454 4.7426,7.14108 8.2143,9.46429 8.8698,5.93567 19.8455,12.02601 30.3571,10.17857 8.3867,-1.47398 15.0302,-8.97834 20,-15.89286 3.4726,-4.8315 5.3234,-10.88293 6.0714,-16.78571 0.6315,-4.98278 -1.129,-9.98632 -1.4285,-15 -0.2912,-4.87372 -0.6321,-9.7682 -0.3572,-14.64286 0.4906,-8.69884 3.2895,-17.18475 3.5714,-25.89286 0.1333,-4.11576 0.2912,-8.37741 -0.8928,-12.32143 -1.295,-4.31361 -2.9771,-9.1199 -6.6072,-11.78571 z"
           id="path4240"
           inkscape:connector-curvature="0"
           sodipodi:nodetypes="aaaaaaaaaaaaaaaaa" />
        <path
           style="fill:#bcc542;fill-opacity:1;fill-rule:evenodd;stroke:#000000;stroke-width:5;stroke-linecap:butt;stroke-linejoin:miter;stroke-miterlimit:4;stroke-dasharray:none;stroke-opacity:1"
           d="m 1384,834.96935 c -1.0633,-1.61253 -2.982,-2.62483 -4.8214,-3.21429 -1.7581,-0.56342 -3.7323,-0.57371 -5.5357,-0.17857 -2.3403,0.51277 -4.4327,1.88906 -6.4286,3.21428 -0.4572,0.30356 -1.25,1.07143 -1.25,1.07143 0,0 2.0914,4.69047 4.1071,6.07143 2.4182,1.65667 5.6866,2.48344 8.5715,1.96429 2.4534,-0.44152 5.2719,-1.8141 6.25,-4.10715 0.6412,-1.50343 0.01,-3.4569 -0.8929,-4.82142 z"
           id="path4242"
           inkscape:connector-curvature="0"
           sodipodi:nodetypes="aaaacaaaa" />
        <path
           style="fill:#c5a242;fill-opacity:1;fill-rule:evenodd;stroke:none;stroke-width:1px;stroke-linecap:butt;stroke-linejoin:miter;stroke-opacity:1"
           d="m 1406.6786,853.54077 c 0.7143,0.53572 3.2987,6.11426 3.3928,9.46429 0.094,3.35109 -1.173,6.74414 -2.8571,9.64286 -2.0302,3.49454 -8.3929,8.75 -8.3929,8.75 0,0 2.2005,-3.16645 2.3215,-5 0.1971,-2.98691 -1.0239,-6.07697 -2.6786,-8.57143 -0.5604,-0.8447 -2.3214,-1.96429 -2.3214,-1.96429 0,0 1.6995,-6.11585 3.75,-8.39285 1.7489,-1.9422 6.7857,-3.92858 6.7857,-3.92858 z"
           id="path4244"
           inkscape:connector-curvature="0"
           sodipodi:nodetypes="caacaacac" />
        <path
           style="opacity:0.62699998;fill:#100f0d;fill-opacity:1;stroke:none"
           d="m 1375.4794,906.52457 c -5.8494,-2.5145 -15.7335,-8.17132 -20.8189,-11.91495 -9.6024,-7.0689 -17.253,-21.04548 -21.0507,-38.45687 -1.5977,-7.32509 -1.5791,-21.91735 0.038,-29.44178 2.7547,-12.82091 9.2026,-25.15805 17.9923,-34.42533 11.4035,-12.02323 20.8727,-14.28664 46.4099,-11.09332 3.9582,0.49496 6.0784,1.12131 7.0607,2.08587 1.3942,1.36903 1.3797,1.37479 -2.1213,0.83888 -1.9388,-0.29679 -8.9345,-0.51224 -15.546,-0.47879 -10.4736,0.053 -12.5588,0.25792 -16.2007,1.59215 -5.9627,2.18444 -10.9163,6.22745 -16.1118,13.14995 -13.4946,17.98061 -20.1247,41.75308 -16.4788,59.08534 1.4324,6.80942 3.69,11.32461 10.3542,20.70871 7.1626,10.08597 10.0362,12.73733 18.6914,17.24623 14.0334,7.31062 23.3667,7.66892 31.8136,1.22131 1.8088,-1.38074 3.1552,-2.08835 2.9918,-1.57248 -0.8747,2.76259 -17.8858,13.35036 -21.3419,13.28327 -0.8228,-0.016 -3.3794,-0.83865 -5.6813,-1.82819 z"
           id="path5182"
           inkscape:connector-curvature="0" />
        <path
           style="opacity:1;fill:url(#linearGradient5253);fill-opacity:1;stroke:none;stroke-width:5;stroke-miterlimit:4;stroke-dasharray:none;stroke-opacity:1"
           d="m 987.22047,836.95209 c -38.28327,-2.07683 -49.74759,-3.09138 -54.92625,-4.86074 l -3.76361,-1.2859 3.53553,-0.76231 c 1.94455,-0.41928 21.35463,-4.26619 43.13352,-8.5487 l 39.59794,-7.78639 101.8234,-13.16509 c 56.0029,-7.2408 118.847,-15.68838 139.6536,-18.77241 20.8066,-3.08402 38.2955,-5.60965 38.8643,-5.61251 0.5953,-0.003 -0.339,1.42001 -2.2017,3.35355 -1.7797,1.84732 -4.5463,5.05069 -6.148,7.11861 -2.9471,3.80494 -10.0085,17.13242 -10.0085,18.88985 0,0.5252 -0.2955,1.13751 -0.6566,1.36069 -0.3611,0.22318 -38.3062,4.37416 -84.3224,9.22441 -46.0163,4.85025 -107.5858,11.68678 -136.8212,15.1923 -29.2354,3.50552 -54.373,6.3241 -55.86144,6.2635 -1.48841,-0.0606 -6.84278,-0.33458 -11.89859,-0.60886 z"
           id="path5188"
           inkscape:connector-curvature="0" />
        <path
           style="opacity:1;fill:url(#linearGradient5233);fill-opacity:1;stroke:none;stroke-width:5;stroke-miterlimit:4;stroke-dasharray:none;stroke-opacity:1"
           d="m 920.69204,826.39188 c -5.83836,-3.84436 -15.75081,-13.41942 -14.25915,-13.77382 0.52451,-0.12461 5.36201,0.0323 10.75,0.34881 28.60184,1.67989 37.94582,0.33048 84.05311,-12.13847 23.5169,-6.35977 33.1176,-8.32517 61.2432,-12.53739 43.7409,-6.55082 85.2563,-10.59402 139,-13.53728 58.855,-3.22318 68.1587,-4.21753 97.9893,-10.47286 7.1442,-1.49809 13.0401,-2.67302 13.1022,-2.61097 0.062,0.062 -2.0707,1.95363 -4.7393,4.2035 -2.6687,2.24987 -5.9034,5.00627 -7.1882,6.12533 l -2.336,2.03465 -36.664,5.44818 c -45.756,6.79925 -33.5912,5.15487 -151.664,20.50117 l -100,12.99731 -41.47613,8.25754 c -22.81189,4.54164 -41.84112,8.25753 -42.28719,8.25753 -0.44606,0 -2.93179,-1.39645 -5.52384,-3.10323 z"
           id="path5192"
           inkscape:connector-curvature="0" />
        <path
           style="opacity:1;fill:url(#linearGradient5245);fill-opacity:1;stroke:none;stroke-width:5;stroke-miterlimit:4;stroke-dasharray:none;stroke-opacity:1"
           d="m 1292.8291,908.82317 c -25.5427,-3.28373 -52.279,-9.24787 -94.73,-21.13173 -12.65,-3.54127 -32.675,-9.07669 -44.5,-12.30094 -11.825,-3.22425 -28.25,-7.97647 -36.5,-10.5605 -49.8115,-15.6017 -69.5458,-20.96713 -89.9306,-24.4506 -6.5618,-1.12132 -12.0542,-2.16242 -12.2053,-2.31354 -0.8767,-0.87668 249.6809,-28.69747 258.4529,-28.69747 1.0882,0 1.2396,0.8466 0.6703,3.75 -2.7397,13.97296 -2.1399,24.83604 2.099,38.01264 3.683,11.44848 14.7823,33.68623 23.078,46.23736 3.817,5.775 7.2806,11.0625 7.6968,11.75 0.917,1.51441 -0.2434,1.49016 -14.1311,-0.29522 z"
           id="path5194"
           inkscape:connector-curvature="0" />
        <g
           id="g5222">
          <path
             inkscape:connector-curvature="0"
             id="path5198"
             d="m 1026.5991,803.55942 c -15.5219,-5.09228 -16.1924,-6.02302 -5.5,-7.63438 1.1,-0.16577 2,-0.39633 2,-0.51236 0,-0.11603 0.9,-0.36079 2,-0.54391 1.1,-0.18312 3.35,-0.63633 5,-1.00712 2.83,-0.63596 4.532,-0.95906 10.5,-1.99326 1.375,-0.23828 3.85,-0.67988 5.5,-0.98135 1.65,-0.30147 4.575,-0.75986 6.5,-1.01865 1.925,-0.25879 4.85,-0.69768 6.5,-0.97532 3.9788,-0.66949 10.3988,-1.58983 13.5,-1.93529 1.375,-0.15317 3.85,-0.56765 5.5,-0.92107 1.65,-0.35341 5.5129,-0.85889 8.5844,-1.12328 3.0714,-0.26439 6.2214,-0.69279 7,-0.95199 0.7785,-0.2592 4.7466,-0.73947 8.8179,-1.06726 4.0712,-0.3278 7.6712,-0.76219 8,-0.96531 0.3287,-0.20313 4.6477,-0.68822 9.5977,-1.07799 4.95,-0.38977 10.35,-0.83756 12,-0.99509 16.1913,-1.54584 45.6353,-3.72141 66.5,-4.91358 4.675,-0.26712 12.1,-0.72877 16.5,-1.02589 4.4,-0.29712 12.725,-0.80953 18.5,-1.13869 21.5816,-1.2301 35.3808,-2.75438 49.5337,-5.47157 5.5185,-1.0595 11.3685,-2.11949 13,-2.35554 1.6314,-0.23605 4.0913,-0.69519 5.4663,-1.02032 9.8295,-2.32428 10.4427,-1.51542 3.5,4.61662 -5.0722,4.47988 -7.8804,5.94345 -12.3955,6.46015 -6.3481,0.72646 -11.1413,1.41388 -20.6045,2.95502 -3.6715,0.59792 -8.9923,1.33891 -13,1.81042 -1.65,0.19412 -4.125,0.62444 -5.5,0.95627 -1.375,0.33184 -4.75,0.87568 -7.5,1.20855 -2.75,0.33287 -6.125,0.78597 -7.5,1.0069 -1.375,0.22093 -4.525,0.64485 -7,0.94205 -2.475,0.29719 -6.075,0.77097 -8,1.05284 -6.4273,0.9411 -9.4659,1.36597 -14,1.95754 -8.7353,1.13968 -10.5347,1.38985 -14,1.94636 -1.925,0.30914 -5.75,0.80702 -8.5,1.10641 -6.0918,0.66321 -8.674,0.99834 -14.5,1.88192 -4.7999,0.72796 -7.8254,1.12731 -15,1.97995 -7.1959,0.85516 -10.9542,1.39142 -13.8213,1.97216 -1.4733,0.29841 -5.3787,0.80077 -8.6787,1.11635 -6.918,0.66158 -10.0126,1.04877 -15.2473,1.90779 -2.064,0.33869 -5.5527,0.80201 -7.7527,1.02959 -2.2,0.22759 -7.375,0.89653 -11.5,1.48654 -4.125,0.59001 -9.3,1.24989 -11.5,1.4664 -2.2,0.21651 -5.575,0.65657 -7.5,0.97791 -1.925,0.32135 -5.6241,0.80213 -8.2203,1.06841 -2.5961,0.26629 -7.5461,0.93091 -11,1.47694 -16.7439,2.64711 -20.1056,2.38837 -35.7797,-2.75387 z"
             style="opacity:1;fill:url(#linearGradient5220);fill-opacity:1;stroke:none;stroke-width:5;stroke-miterlimit:4;stroke-dasharray:none;stroke-opacity:1" />
          <path
             inkscape:connector-curvature="0"
             id="path5200"
             d="m 1071.0991,817.8637 c -13.75,-4.567 -24.1,-8.40807 -23,-8.5357 1.1,-0.12764 3.7338,-0.37908 5.8528,-0.55876 2.1191,-0.17969 4.4816,-0.84848 5.25,-1.48622 1.0674,-0.88581 1.3972,-0.8693 1.3972,0.0699 0,0.71838 0.668,0.9731 1.607,0.61277 0.8838,-0.33917 3.6849,-0.8661 6.2246,-1.17096 2.5397,-0.30487 5.1515,-0.99736 5.804,-1.53888 0.748,-0.62086 1.4043,-0.6319 1.7763,-0.0299 0.6399,1.03524 4.3776,0.40687 6.249,-1.05056 0.7113,-0.55386 1.416,-0.49159 1.8191,0.16075 0.362,0.58568 1.0388,0.82961 1.5041,0.54208 0.8261,-0.51057 6.7547,-1.31536 14.2529,-1.93476 2.0554,-0.1698 4.4179,-0.87375 5.25,-1.56434 1.1844,-0.98295 1.513,-0.98833 1.513,-0.0248 0,0.85304 0.8441,1.0068 2.75,0.50093 1.5125,-0.40146 4.2361,-0.86477 6.0525,-1.02957 1.8164,-0.1648 3.8746,-0.77441 4.5738,-1.35469 0.8942,-0.74214 1.595,-0.73128 2.3629,0.0366 0.7888,0.78885 1.9244,0.67621 4.0939,-0.40609 1.997,-0.99621 3.3364,-1.16364 4,-0.5 0.6636,0.66364 2.014,0.49074 4.0328,-0.51634 1.6692,-0.83274 3.1698,-1.11439 3.3345,-0.62588 0.1723,0.51093 1.7862,0.48652 3.7996,-0.0575 1.925,-0.52011 5.75,-1.17834 8.5,-1.46273 12.4065,-1.28303 16.5006,-1.89323 16.5091,-2.46061 0.01,-0.33556 3.2675,-0.73411 7.25,-0.88569 3.9825,-0.15157 7.3572,-0.6131 7.4994,-1.02561 0.1422,-0.41251 2.0547,-0.57873 4.25,-0.36938 2.1953,0.20936 3.9959,-0.004 4.0013,-0.47438 0.01,-0.47027 3.236,-0.95895 7.1792,-1.08596 3.9431,-0.12701 7.4262,-0.57701 7.7402,-1 0.3139,-0.42299 3.7208,-0.89865 7.5708,-1.05703 3.85,-0.15837 7.1196,-0.62968 7.2658,-1.04735 0.1461,-0.41768 1.8336,-0.57637 3.75,-0.35265 1.9163,0.22372 3.4842,-0.002 3.4842,-0.50184 0,-0.49974 1.575,-0.72474 3.5,-0.5 1.925,0.22473 3.5,-2.7e-4 3.5,-0.5 0,-0.49974 1.575,-0.72474 3.5,-0.5 2.426,0.28322 3.5,0.007 3.5,-0.9008 0,-0.91568 0.3161,-0.99324 1.0515,-0.25792 1.2521,1.25209 5.9485,0.54903 5.9485,-0.89051 0,-0.62089 0.5136,-0.57959 1.342,0.1079 0.7381,0.61257 1.5887,0.86708 1.8902,0.56556 0.3015,-0.30151 2.469,-0.72402 4.8166,-0.93891 2.3476,-0.21488 4.5907,-0.91233 4.9848,-1.54988 0.5376,-0.86997 0.8933,-0.8729 1.4255,-0.0117 0.8,1.29442 4.6302,0.41989 5.7756,-1.31869 0.5003,-0.75952 0.7395,-0.68195 0.75,0.24319 0.011,0.98328 0.7747,1.16545 2.7653,0.65967 2.607,-0.66241 6.2193,-1.19415 12.5751,-1.85109 1.5538,-0.16061 3.2344,-0.93888 3.7347,-1.7295 0.7423,-1.17316 0.9124,-1.18465 0.9249,-0.0625 0.011,0.99794 0.8516,1.20774 3.065,0.76506 3.5559,-0.71119 3.5842,-0.78346 -3.1522,8.05499 -4.9127,6.44573 -11.5869,18.15695 -11.1402,19.54775 0.3882,1.20855 -4.7427,3.01938 -9.2573,3.26715 -2.2,0.12074 -6.25,0.50031 -9,0.84348 -2.75,0.34317 -7.25,0.86702 -10,1.16411 -2.75,0.29708 -6.8,0.7358 -9,0.97493 -2.2,0.23913 -6.25,0.67768 -9,0.97457 -2.75,0.29688 -6.8,0.74316 -9,0.99173 -2.2,0.24857 -6.7,0.71908 -10,1.04558 -3.3,0.3265 -7.35,0.75437 -9,0.95082 -1.65,0.19645 -5.475,0.62899 -8.5,0.9612 -3.025,0.33221 -7.075,0.78292 -9,1.00159 -21.8817,2.48557 -88.0145,9.55819 -88.6573,9.48151 -0.4635,-0.0553 -12.0927,-3.83716 -25.8427,-8.40416 z"
             style="opacity:1;fill:url(#linearGradient5218);fill-opacity:1;stroke:none;stroke-width:5;stroke-miterlimit:4;stroke-dasharray:none;stroke-opacity:1" />
          <path
             inkscape:connector-curvature="0"
             id="path5202"
             d="m 1230.5991,867.46775 c -31.625,-9.18462 -61.775,-18.1131 -67,-19.84105 -5.225,-1.72795 -20.8625,-6.79239 -34.75,-11.25432 -19.9294,-6.40311 -25.2468,-8.4699 -25.2347,-9.80829 0.012,-1.30761 0.2084,-1.39107 0.8591,-0.36468 0.6522,1.02888 2.6872,1.17021 8.9649,0.62259 4.4667,-0.38963 7.9133,-1.04489 7.6591,-1.45613 -0.2541,-0.41124 1.5733,-0.51829 4.061,-0.23789 3.6435,0.41067 4.8006,0.14331 5.95,-1.37489 0.8224,-1.0862 1.4404,-1.35511 1.4588,-0.6347 0.036,1.40128 6.5929,1.76912 7.4287,0.41673 0.2833,-0.4583 1.8857,-0.6321 3.5609,-0.38622 1.8205,0.26719 4.051,-0.21148 5.5441,-1.18979 1.3739,-0.90025 2.4981,-1.17645 2.4981,-0.61377 0,1.61236 5.6877,1.1925 7.4285,-0.54838 0.9876,-0.98753 1.5715,-1.13267 1.5715,-0.39059 0,0.80412 1.1963,0.99014 3.75,0.58309 5.7688,-0.91953 13.3637,-1.60916 17.3943,-1.57942 2.0043,0.0148 4.3381,-0.66698 5.1862,-1.51505 1.0555,-1.05553 1.7559,-1.19574 2.2202,-0.44446 0.4293,0.69464 2.0127,0.83609 4.3138,0.38534 3.5061,-0.68679 6.8082,-1.03775 16.8317,-1.78893 2.5822,-0.19352 4.8682,-0.87177 5.08,-1.50721 0.2774,-0.83221 0.9325,-0.8624 2.3422,-0.10795 1.0764,0.57607 2.8635,0.75973 3.9713,0.40813 1.1078,-0.3516 4.1283,-0.83357 6.7122,-1.07105 5.4791,-0.50355 14.2079,-1.35784 19.1981,-1.87894 12.7175,-1.32802 16.0595,-1.62378 20.6704,-1.8293 4.9299,-0.21973 5.1889,-0.10411 5.5691,2.4862 0.2193,1.49416 0.061,3.32099 -0.3529,4.05963 -0.8875,1.58597 -0.4595,23.14286 0.5314,26.76194 0.3765,1.375 0.8931,3.50075 1.1481,4.72388 0.2549,1.22314 0.9816,3.47314 1.6149,5 0.6333,1.52687 1.2212,3.00112 1.3065,3.27612 0.4385,1.41289 3.3834,7.59708 8.2145,17.25 4.4444,8.88023 5.0686,10.73249 3.5891,10.64934 -0.9851,-0.0554 -27.6661,-7.61535 -59.2911,-16.79998 z"
             style="opacity:1;fill:url(#linearGradient5210);fill-opacity:1;stroke:none;stroke-width:5;stroke-miterlimit:4;stroke-dasharray:none;stroke-opacity:1" />
        </g>
        <path
           style="opacity:1;fill:url(#linearGradient5273);fill-opacity:1;stroke:none;stroke-width:5;stroke-miterlimit:4;stroke-dasharray:none;stroke-opacity:1"
           d="m 1329.5512,912.65168 c -4.0835,-0.30305 -10.0431,-0.78706 -13.2435,-1.07558 l -5.8189,-0.5246 -6.9534,-10.35754 c -20.0092,-29.8048 -30.8251,-57.08879 -29.6186,-74.71553 1.1952,-17.46249 8.7847,-33.80268 21.792,-46.91817 5.96,-6.00956 16.4833,-15.21176 19.7003,-17.22718 2.9282,-1.83448 13.6685,-3.01948 27.2236,-3.00364 11.6651,0.0136 13.3775,0.18281 20.5061,2.02598 8.6537,2.23748 17.5449,5.85301 25.2785,10.27935 5.3629,3.06945 14.9917,9.87322 14.5663,10.29261 -0.1358,0.13382 -3.5879,-0.199 -7.6714,-0.7396 -14.6274,-1.93644 -26.1354,-0.91982 -33.2169,2.93442 -7.2373,3.93907 -16.0334,13.61299 -21.4849,23.62919 -1.3758,2.5279 -3.711,8.09637 -5.1894,12.37436 l -2.6878,7.77818 0.03,14.14213 c 0.028,13.34264 0.138,14.49352 1.9496,20.35761 4.4571,14.42702 11.0132,25.7356 18.3442,31.64158 4.9648,3.99974 18.1671,11.61874 23.6029,13.62114 l 4.0465,1.49061 -3.4803,0.90071 c -10.3579,2.68071 -33.236,4.16544 -47.6744,3.09397 z"
           id="path5255"
           inkscape:connector-curvature="0" />
      </g>
      <g
         transform="matrix(0.60980926,0.22236919,-0.57427695,0.35972836,785.1078,233.46539)"
         id="g4969">
        <path
           style="fill:#9b816f;fill-opacity:1;fill-rule:evenodd;stroke:#000000;stroke-width:1px;stroke-linecap:butt;stroke-linejoin:miter;stroke-opacity:1"
           d="m -38.75152,1236.3573 c -5.50588,0.8008 -10.71796,3.1286 -15.78364,5.4296 -2.07715,0.9435 -4.06063,2.1082 -5.93464,3.4093 -1.84152,1.2785 -4.27468,2.2409 -5.17703,4.2931 -0.6785,1.5431 0.39963,3.3715 0.25253,5.0508 -0.13187,1.5053 -0.37457,3.0484 -1.01015,4.4194 -0.79663,1.7184 -3.08018,2.6805 -3.40926,4.5457 -0.25216,1.4292 1.04994,2.7312 1.26269,4.1669 0.17893,1.2074 0.55853,2.5764 0,3.6618 -1.65676,3.2194 -6.98818,3.2014 -8.83884,6.3134 -1.40893,2.3692 -1.82791,5.5751 -1.01015,8.2075 0.58381,1.8793 4.79823,4.5457 3.91434,4.4194 -0.88388,-0.1262 -5.47054,2.8908 -7.44987,5.177 -0.86243,0.9962 -1.7033,2.2195 -1.76777,3.5356 -0.10365,2.1158 0.93278,4.294 2.27284,5.9346 0.69432,0.8501 2.77792,1.7678 2.77792,1.7678 0,0 -0.96974,1.3188 -1.38896,2.0203 -0.84977,1.422 -2.09408,2.7726 -2.27284,4.4194 -0.15974,1.4717 0.31484,3.0618 1.13642,4.2932 0.99984,1.4986 4.29315,3.283 4.29315,3.283 0,0 -2.62709,2.324 -3.15673,3.9143 -0.37262,1.1188 -0.28388,2.4299 0.12627,3.5355 0.37493,1.0108 1.23642,1.7854 2.02031,2.5254 1.16343,1.0984 3.91434,2.7779 3.91434,2.7779 0,0 -3.88228,1.9562 -5.3033,3.5356 -1.33475,1.4835 -2.59263,3.3163 -2.77792,5.3033 -0.14711,1.5775 0.39342,3.3131 1.38896,4.5457 1.84693,2.2866 7.70241,4.2931 7.70241,4.2931 0,0 -1.52288,2.7343 -2.14657,4.1669 -0.89285,2.0508 -2.71524,4.1209 -2.27285,6.3134 0.5656,2.8032 3.41038,4.7556 5.80838,6.3135 3.20333,2.0811 10.85914,3.6618 10.85914,3.6618 0,0 -5.93787,2.9928 -8.08122,5.4296 -1.86476,2.12 -3.27371,4.7999 -3.78807,7.5761 -0.31587,1.7049 -0.52096,3.7793 0.50507,5.177 1.97535,2.691 9.21765,3.9144 9.21765,3.9144 0,0 -4.94475,4.9627 -6.69226,7.9549 -2.42469,4.1519 -5.47827,8.7219 -5.05077,13.5108 0.27855,3.1204 4.79823,8.0812 4.79823,8.0812 0,0 -5.065,7.1882 -6.06092,11.3643 -0.89849,3.7675 -2.44267,8.8351 0.25254,11.6167 4.39956,4.5406 18.94036,1.0102 18.94036,1.0102 0,0 -10.95427,12.1811 -14.14214,19.5717 -1.51048,3.5018 -2.09819,7.4245 -2.14657,11.2379 -0.0492,3.8816 0.73081,7.787 1.89404,11.4905 0.61492,1.9578 0.77154,4.7336 2.65165,5.5558 4.68376,2.0485 9.99069,-2.436 14.64721,-4.5456 4.1819,-1.8946 11.74302,-7.1974 11.74302,-7.1974 0,0 -12.49758,10.6179 -17.29886,17.1726 -3.80432,5.1937 -6.48573,11.1801 -8.83883,17.1726 -1.19818,3.0513 -2.33727,6.2072 -2.65166,9.4702 -0.14984,1.5552 0.0235,3.1505 0.37881,4.6719 0.70036,2.9988 1.89819,5.9031 3.40927,8.5863 0.95832,1.7017 1.65748,4.1362 3.53553,4.672 2.25499,0.6433 4.45867,-1.4968 6.56599,-2.5254 10.94325,-5.3415 21.05293,-12.258 31.31473,-18.8141 6.12884,-3.9156 17.5514,-11.743 18.05648,-12.2481 0.50507,-0.505 3.78807,-1.894 3.78807,-1.894 0,0 -16.9888,14.1892 -23.73858,22.8547 -5.42163,6.9604 -11.79135,14.2606 -13.13199,22.981 -0.4516,2.9375 1.19043,5.825 1.89404,8.7125 1.14574,4.702 1.50448,9.7489 3.78807,14.0159 1.05559,1.9724 2.27513,4.4131 4.41942,5.0508 3.72953,1.1091 7.71396,-1.5072 11.23794,-3.1568 7.67641,-3.5934 14.52979,-8.8735 20.96067,-14.3946 7.83965,-6.7307 13.69737,-15.5118 21.2132,-22.6022 5.30368,-5.0035 16.79379,-14.0159 16.79379,-14.0159 0,0 -14.97708,13.9632 -21.46574,21.8446 -4.02182,4.885 -8.33514,9.8016 -10.73287,15.6573 -1.63624,3.9961 -2.97242,8.4922 -2.27285,12.7532 0.87891,5.3533 4.57321,9.9288 7.82869,14.2684 1.67882,2.2379 3.39476,4.7618 5.93464,5.9347 1.91671,0.8851 4.29935,1.1379 6.31346,0.505 10.29798,-3.2359 17.42925,-12.8887 25.00127,-20.5818 7.43757,-7.5565 19.82425,-24.875 19.82425,-24.875 0,0 -12.03056,12.3458 -15.40483,20.0768 -0.80271,1.8391 -1.57801,4.01 -1.01015,5.9346 1.56799,5.3143 7.08087,8.5848 11.23794,12.2481 2.78623,2.4553 5.39338,6.0988 9.09138,6.4397 7.20104,0.664 14.04994,-4.5752 19.69797,-9.0913 6.75249,-5.3993 15.78363,-20.5819 15.78363,-20.5819 0,0 6.32341,6.4325 10.35407,8.2075 4.36963,1.9242 9.49722,3.3778 14.14213,2.2728 7.68278,-1.8276 14.51324,-7.5283 19.1929,-13.8896 6.57787,-8.9416 10.6066,-31.5672 10.6066,-31.5672 0,0 2.57045,8.8274 6.31346,10.354 5.06646,2.0664 11.19588,-1.2626 15.9099,-4.0406 4.97671,-2.9328 9.51874,-7.3502 11.86929,-12.6269 5.76544,-12.9428 2.17742,-28.2558 3.55186,-42.3578 1.5686,-16.0941 5.99598,-32.0566 5.35714,-48.2143 -0.59864,-15.1409 -9.02384,-29.4968 -8.57143,-44.6428 0.38879,-13.0162 8.15371,-24.9206 9.64286,-37.8572 1.34805,-11.7108 2.79637,-24.1039 -0.71428,-35.3571 -2.89096,-9.2668 -11.46232,-15.7424 -16.07143,-24.2857 -3.01336,-5.5855 -7.08946,-11.1668 -7.5,-17.5 -0.36812,-5.6788 4.64285,-16.4286 4.64285,-16.4286 0,0 -27.24676,-15.0232 -42.14285,-18.9286 -10.17549,-2.6677 -20.91867,-2.4105 -31.42857,-2.8571 -20.81488,-0.8846 -41.66984,0.7399 -62.5,0.3571 -30.32034,-0.5572 -60.88465,-8.2266 -90.89438,-3.862 z"
           id="path4147"
           inkscape:connector-curvature="0"
           sodipodi:nodetypes="aaaaaaaaaaasaaacaaacaaacaaacaaacaaacaacaacaaaaacaaaaaaaaccaaaaaaaacaaaaaaacaaaaacaaacaaaaaaaaaacaaaa" />
        <g
           id="g4469"
           transform="translate(-427.14286,569.28571)">
          <path
             inkscape:connector-curvature="0"
             id="path4259"
             d="m 349.66592,778.48262 c -4.90543,-3.29768 -4.86385,-6.11206 0.1588,-10.74894 3.67717,-3.39475 5.95912,-4.35035 19.02117,-7.96538 35.68686,-9.87662 98.28307,-23.79168 99.68568,-22.15999 0.48567,0.56499 3.45274,11.33988 3.19393,11.59869 -0.14119,0.14119 -7.05204,1.66016 -15.35745,3.37549 -25.61131,5.28956 -91.16192,22.92282 -101.14629,27.20857 -1.68555,0.72351 -2.99033,0.41623 -5.55584,-1.30844 z"
             style="opacity:1;fill:url(#linearGradient4379);fill-opacity:1;stroke:none" />
          <path
             inkscape:connector-curvature="0"
             id="path4265"
             d="m 346.53729,734.62456 c -4.97212,-5.49413 0.45834,-11.47637 13.19647,-14.53735 24.31578,-5.84307 52.76907,-9.51308 81.64712,-10.53113 l 20.31662,-0.71623 0.7145,3.80862 c 0.39297,2.09474 0.34187,4.13925 -0.11357,4.54336 -0.45544,0.40412 -6.73746,1.27799 -13.96005,1.94195 -35.34454,3.24915 -61.41502,7.39375 -83.93068,13.34301 -16.61954,4.39134 -15.91648,4.30684 -17.87041,2.14777 z"
             style="opacity:1;fill:url(#linearGradient4403);fill-opacity:1;stroke:none" />
          <path
             inkscape:connector-curvature="0"
             id="path4237"
             d="m 598.07435,975.07769 c -2.2623,-0.55733 -5.78924,-7.37168 -5.78924,-11.18533 0,-2.58139 9.87321,-60.93757 10.39583,-61.44516 0.32985,-0.32036 25.01108,3.36253 25.36188,3.78446 0.72907,0.87691 -1.29684,45.09701 -2.19506,47.91222 -1.80953,5.6714 -4.17883,9.30348 -8.45855,12.96676 -6.48853,5.55395 -14.94725,9.04302 -19.31486,7.96705 z"
             style="opacity:1;fill:url(#linearGradient4287);fill-opacity:1;stroke:none" />
          <path
             inkscape:connector-curvature="0"
             id="path4239"
             d="m 550.0599,1008.8742 c -1.83389,-0.5873 -5.21189,-2.7341 -7.50667,-4.7705 l -4.17232,-3.7026 6.39581,-13.56168 c 9.82592,-20.83485 30.83332,-62.69891 38.13951,-76.00534 4.77504,-8.69655 6.95974,-11.78026 8.04963,-11.36203 0.82273,0.31571 3.32537,0.86657 5.56143,1.22413 4.00771,0.64086 4.05792,0.70192 3.52866,4.29096 -2.26501,15.35961 -11.28421,65.78224 -12.90124,72.1256 -2.97921,11.68693 -6.26554,18.26377 -11.983,23.98126 -8.19568,8.1956 -16.1346,10.6553 -25.11181,7.7802 z"
             style="opacity:1;fill:url(#linearGradient4279);fill-opacity:1;stroke:none" />
          <path
             inkscape:connector-curvature="0"
             id="path4241"
             d="m 498.76108,1028.0427 c -3.96491,-2.3107 -14.71855,-12.3366 -16.15273,-15.0597 -0.99977,-1.8982 -1.15383,-3.4559 -0.50944,-5.1508 2.06986,-5.4441 16.68154,-22.71635 37.81067,-44.69536 12.30514,-12.8001 31.00979,-32.92458 41.56588,-44.72107 18.40313,-20.56559 19.3176,-21.42163 22.22336,-20.80327 1.66675,0.3547 3.18244,0.78167 3.36821,0.94883 0.18577,0.16716 -2.4594,5.36643 -5.87814,11.55392 -6.58854,11.92445 -27.99694,54.65978 -37.96695,75.78942 -3.2769,6.9448 -6.22914,12.85419 -6.56053,13.13198 -0.3314,0.27779 -2.91535,3.95255 -5.74211,8.16615 -6.06651,9.0427 -13.94301,16.465 -20.96162,19.7527 -5.64918,2.6463 -8.11118,2.8854 -11.1966,1.0872 z"
             style="opacity:1;fill:url(#linearGradient4295);fill-opacity:1;stroke:none" />
          <path
             inkscape:connector-curvature="0"
             id="path4243"
             d="m 444.16204,1027.0142 c -2.14769,-1.9486 -5.46829,-6.1364 -7.37911,-9.3063 -4.13538,-6.8602 -4.49682,-12.6782 -1.24441,-20.03076 5.37798,-12.15782 24.02744,-31.34733 47.79138,-49.17531 22.75226,-17.06902 32.76401,-25.58966 54.07773,-46.02358 l 18.35856,-17.60077 4.94985,3.077 c 2.72242,1.69235 7.64355,4.1718 10.93586,5.50989 3.2923,1.33809 5.986,2.85001 5.986,3.35982 0,1.56621 -41.28271,46.82885 -65.54932,71.8687 -12.63216,13.03467 -24.95133,26.68343 -27.37596,30.33059 -5.82335,8.75952 -19.44759,23.23172 -25.56786,27.15912 -7.64454,4.9055 -10.32853,5.0544 -14.98272,0.8316 z"
             style="opacity:1;fill:url(#linearGradient4303);fill-opacity:1;stroke:none" />
          <path
             inkscape:connector-curvature="0"
             id="path4245"
             d="m 395.02716,1011.4092 c -2.07909,-2.2974 -3.03976,-4.9267 -5.72991,-15.68267 -2.09179,-8.36354 -2.12759,-9.13633 -0.63173,-13.63706 4.04249,-12.16301 26.25515,-35.61528 43.00534,-45.40531 44.19418,-25.8303 61.96407,-37.32093 89.29298,-57.73998 l 15.04677,-11.24233 5.15628,4.82356 c 2.83595,2.65296 6.87519,6.21927 8.97607,7.92513 l 3.81978,3.10158 -17.46531,17.08362 c -20.44321,19.99643 -27.78264,26.26235 -54.31894,46.37382 -26.90862,20.39365 -32.98969,25.64818 -43.39804,37.49937 -9.87218,11.24068 -21.74966,20.81497 -31.733,25.57957 -7.42878,3.5454 -9.77374,3.8031 -12.02029,1.3207 z"
             style="opacity:1;fill:url(#linearGradient4311);fill-opacity:1;stroke:none" />
          <path
             inkscape:connector-curvature="0"
             id="path4247"
             d="m 361.11741,971.00492 c -5.34389,-10.63109 -5.09704,-14.40639 1.92252,-29.4027 3.13956,-6.70725 5.65986,-10.19218 12.26456,-16.95877 l 8.31297,-8.51672 46.50259,-23.01744 c 25.57643,-12.6596 56.25927,-28.12791 68.18408,-34.37403 l 21.68149,-11.35658 2.05709,2.83254 c 1.13141,1.5579 4.43695,5.79306 7.34567,9.41146 4.06946,5.06236 4.99087,6.81177 3.99718,7.58906 -30.39842,23.77865 -61.1827,44.08316 -102.21978,67.42147 -7.77817,4.42355 -16.18769,9.52825 -18.68782,11.34378 -13.61431,9.88638 -45.20177,28.816 -48.08465,28.816 -0.75447,0 -2.22863,-1.70463 -3.2759,-3.78807 z"
             style="opacity:1;fill:url(#linearGradient4331);fill-opacity:1;stroke:none" />
          <path
             inkscape:connector-curvature="0"
             id="path4249"
             d="m 357.86292,922.64591 c -4.624,-11.95042 -3.35014,-21.96714 4.11698,-32.37307 8.86889,-12.35938 9.41839,-12.77905 24.23409,-18.50888 7.50039,-2.9007 28.86511,-11.1769 47.47717,-18.39156 36.8118,-14.26949 71.85066,-27.28184 72.28114,-26.84298 1.09724,1.11863 12.61684,19.25154 12.37464,19.47884 -1.31905,1.23785 -54.01744,28.19063 -91.22177,46.65569 -25.00127,12.40851 -49.09341,24.63993 -53.53808,27.18093 -4.44467,2.541 -9.54787,4.86464 -11.34044,5.16363 -2.87712,0.4799 -3.39104,0.20292 -4.38373,-2.3626 z"
             style="opacity:1;fill:url(#linearGradient4339);fill-opacity:1;stroke:none" />
          <path
             inkscape:connector-curvature="0"
             id="path4251"
             d="m 352.33398,876.11891 c -2.32307,-2.32308 -1.32665,-9.09768 2.30885,-15.69761 l 2.78182,-5.05015 10.10152,-0.23012 c 8.83901,-0.20136 11.93218,-0.81034 24.74874,-4.8725 8.05597,-2.55331 22.37488,-7.69219 31.8198,-11.41974 26.86269,-10.60166 73.50096,-25.75922 74.86492,-24.3313 1.62149,1.69752 5.88072,9.68083 5.36933,10.06403 -0.23771,0.17813 -13.44598,5.16752 -29.35172,11.08754 -37.49194,13.95427 -104.14584,40.0269 -105.38026,41.22099 -0.5278,0.51056 -4.24552,0.92829 -8.2616,0.92829 -5.49553,0 -7.72238,-0.42042 -9.0014,-1.69943 z"
             style="opacity:1;fill:url(#linearGradient4347);fill-opacity:1;stroke:none" />
          <path
             inkscape:connector-curvature="0"
             id="path4253"
             d="m 356.36626,850.9018 c -4.47902,-4.83295 -2.25707,-13.54857 5.85307,-22.95872 3.32155,-3.85397 3.64014,-3.97293 21.00729,-7.84417 19.56126,-4.36033 107.3377,-22.13525 107.62297,-21.7939 0.78633,0.94088 6.54277,13.10374 6.29479,13.3003 -0.17528,0.13893 -11.22833,3.77224 -24.56234,8.07401 -13.33402,4.30177 -32.4259,11.01527 -42.42641,14.91889 -35.33043,13.79095 -52.78168,18.97647 -63.86303,18.97647 -6.75788,0 -7.67908,-0.24805 -9.92634,-2.67288 z"
             style="opacity:1;fill:url(#linearGradient4355);fill-opacity:1;stroke:none" />
          <path
             inkscape:connector-curvature="0"
             id="path4255"
             d="m 358.10519,821.20883 c -3.00713,-1.82874 -3.28331,-2.37506 -2.67537,-5.29229 0.9568,-4.5913 2.97284,-7.41454 7.37482,-10.32764 3.0445,-2.01475 10.33843,-3.83687 36.08842,-9.01534 17.75,-3.56963 43.18237,-8.82163 56.51638,-11.67111 13.33402,-2.84948 24.8908,-5.26933 25.68174,-5.37743 0.91372,-0.12488 2.79144,2.92378 5.14971,8.36102 l 3.71163,8.55757 -38.98982,7.76831 c -34.49115,6.872 -83.77921,17.27388 -87.9856,18.56871 -0.83524,0.25711 -3.02759,-0.4502 -4.87191,-1.5718 z"
             style="opacity:1;fill:url(#linearGradient4363);fill-opacity:1;stroke:none" />
          <path
             inkscape:connector-curvature="0"
             id="path4257"
             d="m 360.4551,799.82795 c -4.78644,-1.67311 -9.59645,-5.72692 -9.59645,-8.08777 0,-1.17298 1.12087,-4.0453 2.49082,-6.38293 1.89709,-3.23714 3.40199,-4.49738 6.31345,-5.28701 2.10245,-0.57021 17.23242,-4.90096 33.62214,-9.62387 25.97815,-7.48595 62.83799,-16.50636 75.25637,-18.41689 l 4.04061,-0.62164 4.29314,12.1017 c 2.36124,6.65593 4.29315,12.52036 4.29315,13.03206 0,0.51171 -8.97773,2.85726 -19.95051,5.21235 -38.68843,8.3037 -93.31047,19.29184 -95.50802,19.21305 -1.22333,-0.0439 -3.58794,-0.55643 -5.2547,-1.13905 z"
             style="opacity:1;fill:url(#linearGradient4371);fill-opacity:1;stroke:none" />
          <path
             inkscape:connector-curvature="0"
             id="path4261"
             d="m 350.06557,760.62608 c -2.86525,-2.6694 -2.85139,-5.59759 0.0355,-7.48848 3.52492,-2.30883 37.44602,-10.36292 59.85154,-14.21093 23.85023,-4.09612 56.10565,-8.90251 56.52645,-8.42302 0.16291,0.18562 0.60577,1.34514 0.98415,2.57669 0.78997,2.57124 2.4536,2.0341 -18.11465,5.84872 -25.39471,4.70973 -85.2089,19.23929 -95.56882,23.21476 -0.81222,0.31168 -2.48358,-0.37131 -3.71414,-1.51774 z"
             style="opacity:1;fill:url(#linearGradient4387);fill-opacity:1;stroke:none" />
          <path
             inkscape:connector-curvature="0"
             id="path4263"
             d="m 347.87987,748.57049 c -2.53789,-2.53789 -2.63789,-5.19063 -0.30421,-8.06957 1.92511,-2.37491 14.8169,-6.21499 35.76724,-10.65401 11.4218,-2.42009 39.80313,-6.36701 61.45994,-8.5471 5.83363,-0.58724 12.51447,-1.31869 14.8463,-1.62544 l 4.23972,-0.55774 1.12998,4.19646 c 0.6215,2.30805 0.93216,4.39428 0.69038,4.63607 -0.24178,0.24178 -10.84038,2.00926 -23.55244,3.92773 -39.66591,5.98627 -72.58774,12.61794 -90.48884,18.22779 -0.97103,0.3043 -2.61566,-0.36178 -3.78807,-1.53419 z"
             style="opacity:1;fill:url(#linearGradient4395);fill-opacity:1;stroke:none" />
          <path
             inkscape:connector-curvature="0"
             id="path4267"
             d="m 350.2819,716.73138 c -2.40039,-3.66345 -0.75874,-7.56865 4.38563,-10.43266 2.29105,-1.27549 4.42501,-3.13657 4.74214,-4.13574 0.51059,-1.60875 2.39553,-1.89212 16.46837,-2.47579 20.25953,-0.84027 47.85847,-0.84156 68.07176,-0.003 l 15.81447,0.65592 0.60753,3.03759 c 0.33413,1.67067 0.49071,3.14358 0.34795,3.27313 -0.14275,0.12955 -11.16919,0.73513 -24.50321,1.34573 -25.55518,1.17024 -42.9939,3.30598 -67.2483,8.23595 -8.09621,1.64564 -15.24518,2.99208 -15.88662,2.99208 -0.64143,0 -1.90131,-1.12186 -2.79972,-2.49302 z"
             style="opacity:1;fill:url(#linearGradient4411);fill-opacity:1;stroke:none" />
          <path
             inkscape:connector-curvature="0"
             id="path4269"
             d="m 359.06536,696.81867 c -0.64299,-1.7287 -0.37641,-2.97464 1.01675,-4.75208 1.03852,-1.32499 1.88822,-2.95852 1.88822,-3.63007 0,-1.45025 22.42924,-3.55554 37.93349,-3.56058 9.87203,-0.003 57.25373,2.06675 57.80983,2.52553 0.15615,0.12882 0.55084,2.48802 0.87709,5.24266 l 0.59318,5.00845 -47.34411,-0.0369 c -26.03925,-0.0203 -48.36984,0.31925 -49.62353,0.75455 -1.84225,0.63965 -2.44659,0.34207 -3.15092,-1.55155 z"
             style="opacity:1;fill:url(#linearGradient4419);fill-opacity:1;stroke:none" />
          <path
             inkscape:connector-curvature="0"
             id="path4271"
             d="m 362.65934,683.76026 c -0.30295,-1.1585 -0.33928,-2.65764 -0.0807,-3.33141 0.77716,-2.02525 10.85357,-7.64053 18.7517,-10.44975 6.8679,-2.44279 8.70025,-2.64047 25.08673,-2.70642 16.62906,-0.0669 47.21122,2.01807 49.28371,3.36001 0.51769,0.3352 1.1731,3.92823 1.45647,7.98451 l 0.51522,7.37505 -2.64673,-0.51674 c -1.4557,-0.28422 -14.62519,-1.04904 -29.26554,-1.69961 -20.75928,-0.92248 -30.43205,-0.90957 -43.94164,0.0587 -9.52755,0.68284 -17.61206,1.4194 -17.96559,1.6368 -0.35352,0.2174 -0.89064,-0.55259 -1.1936,-1.7111 z"
             style="opacity:1;fill:url(#linearGradient4427);fill-opacity:1;stroke:none" />
        </g>
        <g
           id="g4583"
           transform="translate(-427.14286,569.28571)">
          <path
             inkscape:connector-curvature="0"
             id="path4511"
             d="m 435.51494,920.82638 c -6.56794,-8.24368 -15.63626,-21.04699 -15.63626,-22.07639 0,-0.60605 17.85615,-9.82793 18.18042,-9.38935 0.0877,0.11866 1.23502,1.82288 2.54955,3.78717 4.37247,6.53377 10.87204,14.79993 15.4664,19.67019 l 4.54082,4.81351 -9.26498,5.43672 c -5.09575,2.9902 -9.36697,5.43672 -9.49162,5.43672 -0.12464,0 -2.97959,-3.45536 -6.34433,-7.67857 z"
             style="opacity:0.77399998;fill:#dad3bb;fill-opacity:1;stroke:none" />
          <path
             inkscape:connector-curvature="0"
             id="path4513"
             d="m 496.66486,973.20815 c -7.86623,-4.04768 -25.34769,-15.70354 -24.59118,-16.39631 0.16775,-0.15362 4.9294,-3.72412 10.58144,-7.93444 l 10.27643,-7.65512 2.58071,1.08108 c 1.41939,0.5946 5.95571,2.50289 10.08071,4.24066 4.125,1.73776 10.4972,4.22815 14.16044,5.5342 l 6.66044,2.37464 -10.93751,10.95462 c -6.01563,6.02504 -11.33005,10.95461 -11.80982,10.95461 -0.47976,0 -3.63051,-1.41927 -7.00166,-3.15394 z"
             style="opacity:0.77399998;fill:#dad3bb;fill-opacity:1;stroke:none" />
          <path
             inkscape:connector-curvature="0"
             id="path4517"
             d="m 487.76186,936.28041 c -9.58038,-5.19844 -24.89505,-16.96808 -23.98818,-18.43543 0.38746,-0.62692 13.49178,-8.62574 14.1314,-8.62574 0.23712,0 2.94783,1.73116 6.02379,3.84703 3.07597,2.11587 9.61053,6.14671 14.52124,8.95742 4.91071,2.8107 8.85997,5.27254 8.77612,5.47074 -0.0838,0.1982 -2.01242,1.85613 -4.28572,3.68429 -2.27329,1.82816 -5.43127,4.36812 -7.01773,5.64434 l -2.88448,2.32041 -5.27644,-2.86306 z"
             style="opacity:0.77399998;fill:#dad3bb;fill-opacity:1;stroke:none" />
          <path
             inkscape:connector-curvature="0"
             id="path4519"
             d="m 530.95011,986.01316 c -5.89286,-1.69377 -14.02048,-4.3043 -18.06139,-5.80118 l -7.34711,-2.7216 11.27568,-11.24164 11.27568,-11.24164 12.93621,4.35304 12.93622,4.35304 -6.03557,12.57446 c -3.31956,6.91595 -6.08728,12.62635 -6.1505,12.68978 -0.0632,0.0634 -4.93636,-1.27049 -10.82922,-2.96426 z"
             style="opacity:0.77399998;fill:#dad3bb;fill-opacity:1;stroke:none" />
          <path
             inkscape:connector-curvature="0"
             id="path4521"
             d="m 435.94821,882.78754 c -3.88706,-6.39879 -12.64597,-24.19613 -12.34799,-25.09005 0.14394,-0.43183 1.85655,-1.39676 3.8058,-2.1443 2.78909,-1.06963 3.66436,-1.16628 4.10865,-0.4537 0.31051,0.498 2.23908,3.71406 4.28572,7.14678 3.0879,5.17922 7.96103,12.35911 12.45845,18.35584 0.76978,1.02641 0.2146,1.5029 -4.42726,3.79975 l -5.3074,2.62618 -2.57597,-4.2405 z"
             style="opacity:0.77399998;fill:#dad3bb;fill-opacity:1;stroke:none" />
          <path
             inkscape:connector-curvature="0"
             id="path4523"
             d="m 400.31499,863.63305 c -0.77236,-1.24971 -5.47199,-13.90194 -5.24729,-14.12664 0.12151,-0.12151 4.81256,-1.80893 10.42455,-3.74982 6.74194,-2.33168 10.3005,-3.25165 10.48918,-2.7117 0.15706,0.44946 1.27032,3.52186 2.47391,6.82756 1.20359,3.3057 1.93586,6.25683 1.62727,6.55807 -0.30859,0.30124 -4.41821,2.04609 -9.1325,3.87744 -4.71429,1.83135 -8.9407,3.48249 -9.39203,3.6692 -0.45134,0.18671 -1.01072,0.0319 -1.24309,-0.34411 z"
             style="opacity:0.77399998;fill:#dad3bb;fill-opacity:1;stroke:none" />
          <path
             inkscape:connector-curvature="0"
             id="path4525"
             d="m 413.93088,829.43216 c -3.57102,-14.93472 -3.60819,-15.16518 -2.50194,-15.511 4.35708,-1.36204 4.67697,-1.24784 5.17176,1.84644 0.3796,2.37385 5.18515,17.76265 6.5613,21.0112 0.1803,0.42561 -0.88647,1.16971 -2.37061,1.65355 -1.48413,0.48384 -3.06623,1.035 -3.51577,1.22479 -0.53452,0.22568 -1.69189,-3.31244 -3.34474,-10.22498 z"
             style="opacity:0.77399998;fill:#dad3bb;fill-opacity:1;stroke:none" />
          <path
             inkscape:connector-curvature="0"
             id="path4527"
             d="m 387.41182,815.46924 c -0.72705,-3.32687 -1.91418,-15.67849 -1.54259,-16.05008 0.36598,-0.36598 19.97904,-4.49387 20.17135,-4.24539 0.3527,0.45573 2.31919,17.23105 2.05132,17.49892 -0.36931,0.36931 -18.01515,4.34402 -19.44961,4.38102 -0.48359,0.0125 -1.0373,-0.70054 -1.23047,-1.58447 z"
             style="opacity:0.77399998;fill:#dad3bb;fill-opacity:1;stroke:none" />
          <path
             inkscape:connector-curvature="0"
             id="path4529"
             d="m 407.39975,791.18352 c -0.35346,-1.56369 -1.79806,-20.0848 -1.80388,-23.1274 -0.002,-1.19052 0.65054,-1.68612 3.00976,-2.28495 1.65697,-0.42059 3.05981,-0.70076 3.11743,-0.6226 0.0576,0.0782 0.28528,6.13761 0.50591,13.46547 0.39857,13.23812 0.3912,13.32604 -1.15315,13.74024 -2.63564,0.70691 -3.29941,0.49551 -3.67607,-1.17076 z"
             style="opacity:0.77399998;fill:#dad3bb;fill-opacity:1;stroke:none" />
          <path
             inkscape:connector-curvature="0"
             id="path4531"
             d="m 383.45011,763.61516 0,-7.86598 3.75,-1.07561 c 5.68418,-1.63038 15.31771,-4.02576 16.19044,-4.02576 0.5056,0 0.77385,2.55466 0.77385,7.36992 l 0,7.36993 -9.46429,2.70925 c -5.20536,1.49009 -9.86607,2.86112 -10.35714,3.04674 -0.68067,0.25729 -0.89286,-1.5319 -0.89286,-7.52849 z"
             style="opacity:0.77399998;fill:#dad3bb;fill-opacity:1;stroke:none" />
          <path
             inkscape:connector-curvature="0"
             id="path4533"
             d="m 406.05621,744.08686 c 0.24804,-2.48077 0.49843,-4.57612 0.5564,-4.65634 0.058,-0.0802 1.45942,-0.36238 3.11432,-0.62701 2.97447,-0.47564 3.00889,-0.4566 3.00889,1.66372 0,4.49806 -0.78406,6.47291 -2.75627,6.94228 -1.03762,0.24695 -2.44633,0.61523 -3.13046,0.81841 -1.12166,0.33312 -1.19956,-0.0738 -0.79288,-4.14106 z"
             style="opacity:0.77399998;fill:#dad3bb;fill-opacity:1;stroke:none" />
          <path
             inkscape:connector-curvature="0"
             id="path4535"
             d="m 384.55267,735.71557 c 0.27393,-3.37655 0.58448,-6.23754 0.69012,-6.35775 0.18607,-0.21174 12.22433,-2.40484 17.68475,-3.22176 l 2.69172,-0.4027 -0.46843,5.85008 c -0.25764,3.21755 -0.57272,5.97175 -0.70018,6.12045 -0.12746,0.1487 -4.76871,1.14347 -10.31389,2.21062 l -10.08214,1.94025 0.49805,-6.13919 z"
             style="opacity:0.77399998;fill:#dad3bb;fill-opacity:1;stroke:none" />
          <path
             inkscape:connector-curvature="0"
             id="path4537"
             d="m 407.42572,721.75828 c 0.148,-1.20004 0.45804,-3.99717 0.68899,-6.21583 0.41854,-4.02084 0.42845,-4.03499 3.05622,-4.36291 1.44998,-0.18094 2.68222,-0.29425 2.73832,-0.25179 0.0561,0.0425 -0.10462,2.80934 -0.35715,6.14863 l -0.45913,6.07143 -2.96817,0.39619 c -2.96238,0.39541 -2.96764,0.39194 -2.69908,-1.78572 z"
             style="opacity:0.77399998;fill:#dad3bb;fill-opacity:1;stroke:none" />
          <path
             inkscape:connector-curvature="0"
             id="path4539"
             d="m 387.33938,707.25495 c 0.76929,-8.76834 -0.22487,-8.03571 10.90429,-8.03571 l 9.6973,0 -0.47741,5.13674 c -0.26258,2.82521 -0.5987,5.25803 -0.74694,5.40627 -0.23951,0.23951 -17.6896,2.97084 -19.24329,3.012 -0.3408,0.009 -0.40108,-2.47466 -0.13395,-5.5193 z"
             style="opacity:0.77399998;fill:#dad3bb;fill-opacity:1;stroke:none" />
          <path
             inkscape:connector-curvature="0"
             id="path4541"
             d="m 410.2299,693.68352 c 1.22299,-9.45738 0.89594,-8.75 4.04541,-8.75 2.3687,0 2.78223,0.20836 2.4809,1.25 -0.19887,0.6875 -0.57941,3.41965 -0.84563,6.07143 l -0.48404,4.82143 -2.81769,0 -2.8177,0 0.43875,-3.39286 z"
             style="opacity:0.77399998;fill:#dad3bb;fill-opacity:1;stroke:none" />
          <path
             inkscape:connector-curvature="0"
             id="path4543"
             d="m 390.64662,681.18352 c 0.0295,-1.27678 0.43273,-4.89285 0.89603,-8.03571 l 0.84237,-5.71429 4.63969,-0.45222 c 6.74866,-0.65779 15.0004,-0.7038 14.9742,-0.0835 -0.0125,0.29464 -0.48441,3.91071 -1.0488,8.03571 -0.56439,4.125 -1.03635,7.74107 -1.0488,8.03572 -0.0124,0.29464 -4.36191,0.53571 -9.66549,0.53571 l -9.64285,0 0.0537,-2.32143 z"
             style="opacity:0.77399998;fill:#dad3bb;fill-opacity:1;stroke:none" />
          <path
             inkscape:connector-curvature="0"
             id="path4547"
             d="m 560.58652,904.71079 c -4.12855,-1.27463 -10.02457,-3.23591 -13.10228,-4.35841 l -5.59582,-2.04092 5.95942,-6.00409 c 3.67645,-3.70402 6.36986,-5.87506 7.03084,-5.66727 0.58929,0.18525 6.43455,2.21697 12.98948,4.51493 l 11.91806,4.1781 -5.00448,5.69305 c -2.75246,3.13118 -5.38345,5.76259 -5.84663,5.84758 -0.46318,0.085 -4.22004,-0.88835 -8.34859,-2.16297 z"
             style="opacity:0.77399998;fill:#dad3bb;fill-opacity:1;stroke:none" />
          <path
             inkscape:connector-curvature="0"
             id="path4549"
             d="m 552.02154,883.67869 c -3.23388,-1.13229 -14.52972,-6.4359 -18.32998,-8.60627 l -4.40141,-2.5137 6.17541,-4.78766 6.17541,-4.78765 2.86886,1.83205 c 1.57787,1.00763 6.31575,3.63306 10.52863,5.83429 l 7.65978,4.00224 -4.80264,4.70092 c -2.99235,2.92898 -5.20649,4.55951 -5.87406,4.32578 z"
             style="opacity:0.77399998;fill:#dad3bb;fill-opacity:1;stroke:none" />
          <path
             inkscape:connector-curvature="0"
             id="path4551"
             d="m 500.76514,873.40296 c -4.21969,-3.39537 -8.55392,-7.10711 -9.6316,-8.2483 l -1.95943,-2.07488 6.35115,-3.11307 6.35115,-3.11307 8.46542,5.71327 c 4.65598,3.14231 9.99221,6.59797 11.85828,7.67925 1.86607,1.08128 3.39286,2.21823 3.39286,2.52656 0,0.30833 -1.71462,1.85514 -3.81026,3.43737 -3.41971,2.5819 -4.29895,2.90186 -8.57783,3.12153 l -4.76756,0.24476 -7.67218,-6.17342 z"
             style="opacity:0.77399998;fill:#dad3bb;fill-opacity:1;stroke:none" />
          <path
             inkscape:connector-curvature="0"
             id="path4553"
             d="m 496.85021,850.74234 c -6.3795,-5.07859 -16.74312,-14.82702 -16.25724,-15.29219 0.19643,-0.18806 4.64435,-1.90802 9.88427,-3.82214 l 9.52714,-3.4802 8.77609,8.57143 c 4.82686,4.71428 8.89679,8.82467 9.0443,9.13419 0.14751,0.30952 -3.34461,2.46502 -7.76027,4.79 l -8.02847,4.22723 -5.18582,-4.12832 z"
             style="opacity:0.77399998;fill:#dad3bb;fill-opacity:1;stroke:none" />
          <path
             inkscape:connector-curvature="0"
             id="path4555"
             d="m 462.25921,833.31471 c -2.02999,-2.8418 -3.79785,-5.60614 -3.92857,-6.14299 -0.15661,-0.64319 1.39231,-1.53586 4.54166,-2.61743 l 4.77934,-1.64136 1.02122,1.55859 c 0.56168,0.85723 2.6583,3.47703 4.65917,5.8218 2.00086,2.34476 3.40847,4.45499 3.12801,4.68939 -0.76175,0.63664 -8.72393,3.52403 -9.68063,3.51057 -0.45612,-0.006 -2.4902,-2.33678 -4.5202,-5.17857 z"
             style="opacity:0.77399998;fill:#dad3bb;fill-opacity:1;stroke:none" />
          <path
             inkscape:connector-curvature="0"
             id="path4557"
             d="m 464.33804,815.36533 c -3.90228,-6.27055 -6.12858,-10.43679 -5.76203,-10.78293 0.12719,-0.12009 5.05267,-1.1987 10.94553,-2.39691 9.40913,-1.91317 10.80129,-2.04721 11.42857,-1.10035 6.2609,9.45063 8.18132,12.73322 7.70993,13.17861 -0.31189,0.29469 -5.10135,1.96561 -10.64325,3.71317 l -10.07618,3.17737 -3.60257,-5.78896 z"
             style="opacity:0.77399998;fill:#dad3bb;fill-opacity:1;stroke:none" />
          <path
             inkscape:connector-curvature="0"
             id="path4559"
             d="m 456.9954,801.31325 c -0.47179,-0.88155 -1.92312,-4.76618 -3.22517,-8.63252 l -2.36737,-7.0297 1.55934,-0.3541 c 0.85764,-0.19475 4.61291,-1.01047 8.34505,-1.81271 3.73215,-0.80225 7.31542,-1.61916 7.96284,-1.81538 0.90258,-0.27355 2.20038,1.59144 5.56456,7.99655 2.41309,4.59432 4.13338,8.58498 3.82288,8.86813 -0.31051,0.28316 -4.42171,1.2215 -9.13599,2.0852 -4.71429,0.86371 -9.26823,1.73395 -10.11988,1.93387 -1.1024,0.25878 -1.79556,-0.0982 -2.40626,-1.23934 z"
             style="opacity:0.77399998;fill:#dad3bb;fill-opacity:1;stroke:none" />
          <path
             inkscape:connector-curvature="0"
             id="path4561"
             d="m 439.16163,786.18352 c -0.002,-0.0982 -0.77681,-4.19643 -1.72287,-9.10714 -0.94605,-4.91071 -1.9383,-10.91725 -2.205,-13.34785 l -0.4849,-4.41927 2.74348,-0.71973 c 6.79907,-1.78365 6.49836,-1.8006 6.94127,0.39125 0.22497,1.11329 0.91732,5.07774 1.53855,8.80989 0.62123,3.73214 1.61274,8.67373 2.20335,10.98131 0.59061,2.30758 0.92339,4.58766 0.73951,5.06685 -0.35309,0.92012 -9.74051,3.17684 -9.75339,2.34469 z"
             style="opacity:0.77399998;fill:#dad3bb;fill-opacity:1;stroke:none" />
          <path
             inkscape:connector-curvature="0"
             id="path4563"
             d="m 445.25267,752.61209 c -0.22277,-1.27678 -0.66213,-4.30001 -0.97635,-6.71827 l -0.57132,-4.39685 6.38998,-1.16906 c 3.51449,-0.64299 6.53133,-1.02771 6.70409,-0.85495 0.17276,0.17276 0.87201,3.06977 1.55389,6.43781 l 1.23978,6.12369 -3.96417,0.78753 c -2.1803,0.43314 -5.08917,1.08364 -6.46417,1.44555 -3.48871,0.91825 -3.46061,0.93014 -3.91173,-1.65545 z"
             style="opacity:0.77399998;fill:#dad3bb;fill-opacity:1;stroke:none" />
          <path
             inkscape:connector-curvature="0"
             id="path4565"
             d="m 433.45011,738.61374 0,-3.61548 2.67857,-0.42889 c 1.47322,-0.23588 3.20541,-0.53246 3.84933,-0.65905 0.85611,-0.16832 1.28592,0.46615 1.59928,2.3608 0.67751,4.09638 0.62195,4.18783 -2.86136,4.71019 -1.81808,0.27264 -3.74665,0.66495 -4.28571,0.87181 -0.75107,0.28821 -0.98011,-0.4688 -0.98011,-3.23938 z"
             style="opacity:0.77399998;fill:#dad3bb;fill-opacity:1;stroke:none" />
          <path
             inkscape:connector-curvature="0"
             id="path4571"
             d="m 433.17369,730.07154 c -0.24083,-1.757 -0.43787,-4.27469 -0.43787,-5.59485 0,-2.31582 0.0985,-2.40031 2.79873,-2.40031 1.5393,0 3.27242,-0.18177 3.85138,-0.40394 0.84052,-0.32254 1.15564,0.62161 1.56373,4.68516 0.28109,2.79901 0.35645,5.24373 0.16747,5.43272 -0.18899,0.18898 -1.95506,0.59834 -3.9246,0.90968 l -3.58098,0.56608 -0.43786,-3.19454 z"
             style="opacity:0.77399998;fill:#dad3bb;fill-opacity:1;stroke:none" />
          <path
             inkscape:connector-curvature="0"
             id="path4573"
             d="m 442.02154,714.63916 0,-5.41992 6.78571,0 6.78572,0 0,4.56055 0,4.56056 -4.10715,0.46032 c -2.25892,0.25319 -5.3125,0.6399 -6.78571,0.85938 l -2.67857,0.39904 0,-5.41993 z"
             style="opacity:0.77399998;fill:#dad3bb;fill-opacity:1;stroke:none" />
          <path
             inkscape:connector-curvature="0"
             id="path4575"
             d="m 433.10053,715.46924 c 0.28033,-2.84822 0.57943,-5.25755 0.66466,-5.35407 0.0852,-0.0965 1.65635,-0.38129 3.49137,-0.63281 l 3.33641,-0.4573 0,5.36495 0,5.36494 -2.23215,0.44643 c -1.22767,0.24554 -3.02815,0.44643 -4.00106,0.44643 -1.76658,0 -1.76825,-0.007 -1.25923,-5.17857 z"
             style="opacity:0.77399998;fill:#dad3bb;fill-opacity:1;stroke:none" />
          <path
             inkscape:connector-curvature="0"
             id="path4577"
             d="m 433.45011,703.50495 0,-4.28571 3.57143,0 3.57143,0 0,4.28571 0,4.28572 -3.57143,0 -3.57143,0 0,-4.28572 z"
             style="opacity:0.77399998;fill:#dad3bb;fill-opacity:1;stroke:none" />
          <path
             inkscape:connector-curvature="0"
             id="path4579"
             d="m 447.9144,697.97459 -5.17858,-0.24651 0,-5.78475 0,-5.78475 4.3905,0.4589 c 2.41477,0.2524 5.30763,0.4589 6.42857,0.4589 l 2.03808,0 0,5.71429 c 0,5.02005 -0.15187,5.69704 -1.25,5.57235 -0.6875,-0.078 -3.58036,-0.25285 -6.42857,-0.38843 z"
             style="opacity:0.77399998;fill:#dad3bb;fill-opacity:1;stroke:none" />
          <path
             inkscape:connector-curvature="0"
             id="path4581"
             d="m 437.17416,684.40925 -3.06166,-0.27469 0.41851,-5.49338 c 0.79334,-10.41345 0.6755,-10.13623 4.30861,-10.13623 l 3.18192,0 -0.006,4.46429 c -0.008,5.46017 -0.75061,12.00904 -1.34328,11.83949 -0.23992,-0.0686 -1.81397,-0.2484 -3.49788,-0.39948 z"
             style="opacity:0.77399998;fill:#dad3bb;fill-opacity:1;stroke:none" />
        </g>
        <path
           style="opacity:0.74500002;fill:url(#linearGradient5031);fill-opacity:1;stroke:none"
           d="m 194.43902,1446.1854 c -23.62573,-5.8812 -34.82458,-9.7569 -50.34025,-17.4218 -10.83221,-5.3512 -16.85569,-9.3427 -22.33095,-14.7977 -6.15599,-6.1332 -7.75172,-10.2228 -11.24693,-28.8244 -2.58507,-13.7577 -7.03677,-20.508 -16.59958,-25.1706 -2.64573,-1.29 -10.33715,-3.7035 -17.6739,-5.546 -7.14431,-1.7941 -15.04304,-4.1931 -17.55273,-5.331 -14.7536,-6.6896 -29.44182,-31.4394 -35.41025,-59.6666 -1.24351,-5.8811 -1.51824,-9.7296 -1.55524,-21.7858 -0.0247,-8.0535 0.21285,-17.8107 0.52792,-21.6826 l 0.57284,-7.0397 4.39197,0.4399 c 15.42188,1.5445 26.48835,1.831 55.10625,1.4264 32.909,-0.4653 51.5509,0.197 60.84998,2.1618 2.82463,0.5968 8.1282,2.2572 11.78572,3.6898 7.14036,2.7967 28.70384,13.0963 30.74377,14.6845 1.16217,0.9048 1.12359,1.2638 -0.64085,5.9628 -1.31876,3.5121 -1.89931,6.4879 -1.9509,10 -0.0704,4.7935 0.1028,5.3328 4.19379,13.0574 2.34698,4.4316 6.89703,11.4193 10.11123,15.5283 3.21421,4.1089 6.52491,8.8773 7.35712,10.5964 3.57731,7.3898 4.47853,19.7041 2.59519,35.4608 -0.74889,6.2653 -1.95853,11.18 -5.09845,20.7142 -3.72355,11.3065 -4.1463,13.2205 -4.4275,20.0459 -0.32571,7.9052 0.16195,10.5543 5.85345,31.7972 1.86985,6.979 2.9344,18.5591 2.03707,22.1593 l -0.55247,2.2166 -10.7463,-2.6751 z"
           id="path4634"
           inkscape:connector-curvature="0" />
      </g>
    </g>
  </g>
</svg>
