<?xml version="1.0" encoding="UTF-8" standalone="no"?>
<!-- Created with Inkscape (http://www.inkscape.org/) -->

<svg
   xmlns:dc="http://purl.org/dc/elements/1.1/"
   xmlns:cc="http://creativecommons.org/ns#"
   xmlns:rdf="http://www.w3.org/1999/02/22-rdf-syntax-ns#"
   xmlns:svg="http://www.w3.org/2000/svg"
   xmlns="http://www.w3.org/2000/svg"
   xmlns:xlink="http://www.w3.org/1999/xlink"
   xmlns:sodipodi="http://sodipodi.sourceforge.net/DTD/sodipodi-0.dtd"
   xmlns:inkscape="http://www.inkscape.org/namespaces/inkscape"
   width="44.556377mm"
   height="14.111111mm"
   viewBox="0 0 157.87693 49.999998"
   id="svg2"
   version="1.1"
   inkscape:version="0.91 r13725"
   sodipodi:docname="ratSprite1.svg">
  <defs
     id="defs4">
    <linearGradient
       inkscape:collect="always"
       id="linearGradient4204">
      <stop
         style="stop-color:#000000;stop-opacity:1;"
         offset="0"
         id="stop4206" />
      <stop
         style="stop-color:#000000;stop-opacity:0;"
         offset="1"
         id="stop4208" />
    </linearGradient>
    <linearGradient
       inkscape:collect="always"
       id="linearGradient4192">
      <stop
         style="stop-color:#9f9f9f;stop-opacity:1;"
         offset="0"
         id="stop4194" />
      <stop
         style="stop-color:#9f9f9f;stop-opacity:0;"
         offset="1"
         id="stop4196" />
    </linearGradient>
    <linearGradient
       inkscape:collect="always"
       id="linearGradient4176">
      <stop
         style="stop-color:#8f4d4d;stop-opacity:1;"
         offset="0"
         id="stop4178" />
      <stop
         style="stop-color:#8f4d4d;stop-opacity:0;"
         offset="1"
         id="stop4180" />
    </linearGradient>
    <linearGradient
       inkscape:collect="always"
       xlink:href="#linearGradient4176"
       id="linearGradient4182"
       x1="104.29825"
       y1="457.50864"
       x2="105.56094"
       y2="465.84238"
       gradientUnits="userSpaceOnUse" />
    <linearGradient
       inkscape:collect="always"
       xlink:href="#linearGradient4192"
       id="linearGradient4198"
       x1="-25.357143"
       y1="449.50507"
       x2="-12.142858"
       y2="480.21933"
       gradientUnits="userSpaceOnUse" />
    <linearGradient
       inkscape:collect="always"
       xlink:href="#linearGradient4204"
       id="linearGradient4210"
       x1="45.714287"
       y1="515.21936"
       x2="44.64286"
       y2="497.00507"
       gradientUnits="userSpaceOnUse" />
  </defs>
  <sodipodi:namedview
     id="base"
     pagecolor="#ffffff"
     bordercolor="#666666"
     borderopacity="1.0"
     inkscape:pageopacity="0.0"
     inkscape:pageshadow="2"
     inkscape:zoom="1.4"
     inkscape:cx="152.78815"
     inkscape:cy="11.001242"
     inkscape:document-units="px"
     inkscape:current-layer="layer1"
     showgrid="false"
     showguides="false"
     inkscape:window-width="1366"
     inkscape:window-height="704"
     inkscape:window-x="0"
     inkscape:window-y="27"
     inkscape:window-maximized="1"
     fit-margin-top="0"
     fit-margin-left="0"
     fit-margin-right="0"
     fit-margin-bottom="0" />
  <metadata
     id="metadata7">
    <rdf:RDF>
      <cc:Work
         rdf:about="">
        <dc:format>image/svg+xml</dc:format>
        <dc:type
           rdf:resource="http://purl.org/dc/dcmitype/StillImage" />
        <dc:title></dc:title>
      </cc:Work>
    </rdf:RDF>
  </metadata>
  <g
     inkscape:label="Layer 1"
     inkscape:groupmode="layer"
     id="layer1"
     transform="translate(180.84732,-487.70454)">
    <g
       id="g4532"
       transform="matrix(0.47169371,0,0,0.47234803,-95.542615,283.72105)">
      <g
         id="g4498">
        <ellipse
           style="opacity:1;fill:#6f6f6f;fill-opacity:1;stroke:#000000;stroke-width:1.25740469;stroke-miterlimit:4;stroke-dasharray:none;stroke-opacity:1"
           id="path4337-6-4"
           cx="250.48648"
           cy="-452.24066"
           rx="11.113993"
           ry="31.595493"
           transform="matrix(-0.7773106,0.62911703,-0.62911703,-0.7773106,0,0)" />
        <ellipse
           style="opacity:1;fill:#6f6f6f;fill-opacity:1;stroke:#000000;stroke-width:1.21450388;stroke-miterlimit:4;stroke-dasharray:none;stroke-opacity:1"
           id="path4337-6"
           cx="341.0531"
           cy="-383.19995"
           rx="10.734799"
           ry="30.517502"
           transform="matrix(-0.7773106,0.62911703,-0.62911703,-0.7773106,0,0)" />
        <ellipse
           style="opacity:1;fill:#6f6f6f;fill-opacity:1;stroke:#000000;stroke-width:1;stroke-miterlimit:4;stroke-dasharray:none;stroke-opacity:1"
           id="path4337"
           cx="288.48962"
           cy="423.29874"
           rx="8.8388348"
           ry="25.127544"
           transform="matrix(0.74823711,0.6634314,-0.6634314,0.74823711,0,0)" />
        <ellipse
           style="opacity:1;fill:#6f6f6f;fill-opacity:1;stroke:#000000;stroke-width:1;stroke-miterlimit:4;stroke-dasharray:none;stroke-opacity:1"
           id="path4337-6-4-3"
           cx="353.79059"
           cy="-372.44165"
           rx="8.8388348"
           ry="25.127544"
           transform="matrix(0.7773106,0.62911703,0.62911703,-0.7773106,0,0)" />
        <path
           style="fill:#6f6f6f;fill-opacity:1;fill-rule:evenodd;stroke:#000000;stroke-width:1px;stroke-linecap:butt;stroke-linejoin:miter;stroke-opacity:1"
           d="m -71.497067,483.0934 c -2.228253,-0.67515 -4.73762,0.75525 -6.983438,0.14106 -6.06324,-1.6582 -10.752575,-6.51709 -16.036002,-9.92266 -9.455193,-6.09459 -18.634723,-12.60747 -28.023573,-18.80378 -7.49491,-4.9464 -14.10142,-11.75889 -22.59756,-14.66682 -5.32422,-1.82229 -11.2153,-1.88424 -16.82303,-1.41362 -2.70129,0.22671 -5.47058,0.774 -7.87695,2.02211 -2.12543,1.1024 -3.93997,2.81467 -5.46754,4.65838 -1.90717,2.30181 -3.77065,4.87629 -4.44541,7.7884 -1.1965,5.16382 -0.45255,10.77391 1.00547,15.87006 2.20155,7.69494 6.38197,14.89324 11.38588,21.13983 4.10641,5.1262 9.62606,8.97739 14.89075,12.90469 1.41835,1.0581 2.8797,2.09053 4.47573,2.85471 0.74169,0.35512 1.62003,1.19016 2.33757,0.78848 0.49274,-0.27584 0.41066,-1.08773 0.3776,-1.65146 -0.0287,-0.49001 -0.2161,-0.98252 -0.49378,-1.38729 -2.19108,-3.19383 -6.12813,-4.78149 -8.81052,-7.57544 -4.41382,-4.5974 -8.5846,-9.52872 -11.86445,-14.9932 -2.77053,-4.61591 -5.67657,-9.47519 -6.46333,-14.80093 -0.5699,-3.85773 0.0229,-7.96174 1.38179,-11.61691 0.61879,-1.66447 1.59436,-3.30488 2.97928,-4.41634 2.02778,-1.62738 4.67574,-2.54959 7.25731,-2.8589 2.55163,-0.30572 5.13827,0.45336 7.63766,1.0512 3.05671,0.73116 6.08699,1.70178 8.91151,3.08026 3.35004,1.63498 6.39642,3.85387 9.38314,6.08445 7.01567,5.23952 12.97732,11.79453 19.96131,17.07622 9.31306,7.04306 19.124541,13.44063 29.15912,19.41098 2.880121,1.71361 5.875577,3.23133 8.88937,4.69715 2.277313,1.10763 4.457026,2.59076 6.939167,3.09271 2.282094,0.46149 5.192215,1.34637 6.983438,-0.14106 2.925769,-2.42956 3.728007,-7.63648 2.322315,-11.17016 -1.560713,-3.92339 -6.351834,-6.01772 -10.392827,-7.24212 z"
           id="path4396"
           inkscape:connector-curvature="0"
           sodipodi:nodetypes="aaaaaaaaaaaaaaaaaaaaaaaaaaaaaaaa" />
        <path
           style="fill:#6f6f6f;fill-opacity:1;fill-rule:evenodd;stroke:#000000;stroke-width:1px;stroke-linecap:butt;stroke-linejoin:miter;stroke-opacity:1"
           d="m -80.992953,482.41645 c 1.897348,-6.65342 6.431246,-12.37651 10.877087,-17.67767 6.198446,-7.39096 13.730654,-13.68765 21.628544,-19.22572 5.643716,-3.95742 11.585918,-7.85033 18.182746,-9.84898 11.407567,-3.45617 23.6886407,-3.38033 35.6078769,-3.283 7.7898581,0.0636 15.6548311,0.72272 23.2335081,2.52538 4.198244,0.99859 8.017104,3.21389 12.121831,4.54568 5.730486,1.85927 11.436967,4.13698 17.425131,4.79823 3.434582,0.37927 6.909984,-0.78527 10.354064,-0.50508 3.60389,0.29319 7.156694,1.1902 10.606601,2.27285 2.699904,0.84728 5.1067,2.50957 7.828683,3.28299 1.557569,0.44256 3.240976,0.31393 4.798225,0.75762 6.675926,1.90209 12.921896,5.10456 19.192896,8.08122 4.21838,2.00234 8.10749,4.66919 12.37437,6.56599 2.70103,1.20071 5.80665,1.49717 8.33376,3.03046 1.17156,0.71083 1.98265,1.89479 3.03046,2.77792 4.97976,4.19711 10.67884,7.52627 15.45034,11.95872 1.0903,1.01283 2.35498,1.97161 2.98495,3.31984 0.25197,0.53927 0.40579,1.19259 0.25253,1.76776 -0.56366,2.11526 -2.5905,3.53716 -4.04061,5.17703 -1.65609,1.8728 -3.07551,4.16885 -5.3033,5.3033 -1.44292,0.73477 -3.18933,0.57509 -4.79823,0.75762 -6.03678,0.68488 -12.11204,1.5043 -18.18274,1.26269 -5.10323,-0.2031 -10.0662,-1.80818 -15.15229,-2.27284 -5.03261,-0.45977 -10.575946,-2.64882 -15.152289,-0.50508 -1.35029,0.63253 -1.551934,2.63892 -2.747282,3.53028 -1.67484,1.24891 -4.076157,1.15685 -5.839015,2.2781 -2.059847,1.31015 -3.329381,3.61441 -5.3033,5.05076 -0.853434,0.62101 -1.810796,1.0995 -2.783176,1.50997 -2.353788,0.9936 -4.792471,1.89405 -7.31835,2.2781 -5.825604,0.88575 -11.792428,-0.29353 -17.677669,0 -21.968492,1.09569 -43.670102,7.0791 -65.659916,6.56599 -10.925397,-0.25493 -22.11079,-1.19625 -32.434743,-4.78028 -11.603617,-4.02827 -25.813378,-7.72727 -31.942357,-18.37183 -2.150305,-3.73455 -1.130123,-8.78386 0.05166,-12.92802 z"
           id="path4319"
           inkscape:connector-curvature="0"
           sodipodi:nodetypes="aaaaaaaaaaaaaaaaaaaaaaaaaaaaaaaaaaa" />
        <g
           id="g4390"
           transform="matrix(0.99806573,-0.06216758,0.06216758,0.99806573,-22.451925,36.114095)">
          <ellipse
             transform="matrix(0.73090434,-0.68247992,0.68247992,0.73090434,0,0)"
             ry="3.7880721"
             rx="2.588516"
             cy="412.41202"
             cx="-215.18178"
             id="path4386"
             style="opacity:1;fill:#000000;fill-opacity:1;stroke:#000000;stroke-width:1;stroke-miterlimit:4;stroke-dasharray:none;stroke-opacity:1" />
          <ellipse
             ry="1.3258252"
             rx="1.0732871"
             cy="448.85919"
             cx="124.81697"
             id="path4388"
             style="opacity:1;fill:#ffffff;fill-opacity:1;stroke:none;stroke-width:1;stroke-miterlimit:4;stroke-dasharray:none;stroke-opacity:1" />
        </g>
        <g
           id="g4184">
          <path
             sodipodi:nodetypes="aaaaaaaaaaaaa"
             inkscape:connector-curvature="0"
             id="path4384"
             d="m 112.75828,465.96865 c -0.3578,1.48257 -1.78636,2.498 -2.90419,3.53554 -1.01849,0.94534 -2.10551,1.91826 -3.40926,2.39911 -1.26921,0.46811 -2.82428,0.97085 -4.04062,0.3788 -0.62986,-0.30658 -0.66592,-1.24878 -1.13642,-1.76776 -2.415035,-2.66389 -7.066042,-3.37782 -8.460025,-6.69226 -2.018242,-4.79873 -1.720072,-11.55606 1.641498,-15.5311 1.213329,-1.43475 3.563205,-1.2976 5.42957,-1.51523 1.045997,-0.12197 2.166027,-0.2308 3.156727,0.12627 1.89277,0.68219 3.64414,2.01375 4.79822,3.6618 1.61885,2.31175 1.57971,5.42218 2.52539,8.08123 0.53165,1.49489 1.303,2.90239 1.76776,4.41941 0.29019,0.94722 0.86376,1.94116 0.63135,2.90419 z"
             style="fill:#f8c5d1;fill-opacity:1;fill-rule:evenodd;stroke:#875555;stroke-width:1px;stroke-linecap:butt;stroke-linejoin:miter;stroke-opacity:1" />
          <path
             inkscape:connector-curvature="0"
             id="path4174"
             d="m 103.33892,471.71258 c -1.23715,-5.40979 -1.52902,-6.02653 -4.314709,-9.11715 -1.782958,-1.97814 -2.355846,-3.01366 -2.344332,-4.23751 0.01044,-1.11004 0.233643,-1.98263 0.811137,-3.1711 0.569537,-1.1721 1.589858,-2.28433 2.500105,-2.72533 0.708679,-0.34334 2.073759,-0.44706 3.094619,-0.23513 1.4111,0.29294 3.30318,1.41707 5.18863,3.0827 0.64206,0.56719 0.83925,0.82901 0.94085,1.24918 0.36555,1.51163 0.72119,2.57689 1.35742,4.06585 0.90057,2.10761 1.6781,4.37935 1.67659,4.89853 -0.002,0.69689 -0.66478,1.62655 -2.1379,2.99892 -1.57841,1.47046 -2.46279,2.16495 -3.28917,2.58297 -0.69234,0.35022 -1.99929,0.75797 -2.80662,0.87562 -0.57705,0.0841 -0.59811,0.0758 -0.67662,-0.26755 z"
             style="opacity:0.803;fill:url(#linearGradient4182);fill-opacity:1;stroke:none;stroke-width:1;stroke-miterlimit:4;stroke-dasharray:none;stroke-opacity:1" />
        </g>
        <path
           style="opacity:0.803;fill:url(#linearGradient4198);fill-opacity:1;stroke:none;stroke-width:1;stroke-miterlimit:4;stroke-dasharray:none;stroke-opacity:1"
           d="m -31.358532,516.90835 c -8.771825,-1.06301 -18.542658,-3.7346 -30.286554,-8.28111 -9.717903,-3.76217 -16.496724,-8.80096 -19.114125,-14.20779 -0.963368,-1.99005 -0.958694,-6.56067 0.01061,-10.37488 2.826202,-11.12111 15.062676,-25.48424 31.865673,-37.40382 11.570847,-8.20804 17.750658,-10.88195 29.015654,-12.55464 5.643129,-0.83793 18.4058753,-1.24772 28.0436182,-0.90045 12.8535648,0.46315 18.9763358,1.54908 26.8871998,4.76872 5.195579,2.11455 13.04674,4.76264 17.755658,5.98876 3.200143,0.83325 8.612768,1.08669 12.5,0.58528 l 1.964285,-0.25337 -1.25,0.59396 c -28.03386,13.32072 -45.377582,23.31227 -59.6890928,34.38629 -12.09675,9.36028 -18.6252932,17.50967 -27.1089362,33.83929 l -2.272921,4.375 -2.160954,-0.0383 c -1.188525,-0.0211 -3.960575,-0.25639 -6.160114,-0.52294 z"
           id="path4190"
           inkscape:connector-curvature="0" />
        <path
           style="opacity:0.48399999;fill:url(#linearGradient4210);fill-opacity:1;stroke:none;stroke-width:1;stroke-miterlimit:4;stroke-dasharray:none;stroke-opacity:1"
           d="m -23.966514,517.60297 c -4.764834,-0.33789 -11.852941,-1.27275 -15.969458,-2.10625 -4.224946,-0.85546 -14.387685,-3.99057 -14.387685,-4.43847 0,-0.11446 13.138393,-7.83678 29.196429,-17.16071 16.0580354,-9.32393 41.524696,-24.11994 56.592579,-32.88002 l 27.39615,-15.92742 4.47775,-0.43416 c 3.891157,-0.37729 4.932871,-0.35664 7.951878,0.15763 1.910772,0.32549 3.802772,0.71675 4.20445,0.86947 0.444093,0.16884 1.060725,1.09825 1.573343,2.37139 1.316522,3.26972 5.871647,11.99742 7.755957,14.86054 5.746797,8.732 21.682301,20.66548 43.273381,32.40575 3.0017,1.63218 5.53316,3.08981 5.62546,3.23916 0.22986,0.37192 -5.91158,0.82115 -10.90452,0.79764 -2.78601,-0.0131 -5.71548,-0.31272 -9.10714,-0.93136 -2.75,-0.50161 -5.80357,-1.01791 -6.78572,-1.14735 -0.98214,-0.12943 -3.71428,-0.54122 -6.07142,-0.91507 -5.204416,-0.82544 -6.962516,-0.83287 -9.277455,-0.0392 -1.272246,0.43617 -2.011614,0.96466 -2.601314,1.85937 -1.441482,2.18706 -1.760279,2.4232 -4.419611,3.27358 -2.322118,0.74255 -2.96115,1.16626 -5.852986,3.88077 -2.859107,2.68379 -3.605893,3.18289 -6.261735,4.18487 -5.045829,1.90368 -5.431822,1.94591 -18.55119,2.02987 -13.389871,0.0857 -12.742196,0.0271 -34.107143,3.08389 -17.2513785,2.46823 -21.6078214,2.87413 -32.142857,2.99488 -5.303572,0.0608 -10.526786,0.0479 -11.607143,-0.0288 l 0,2e-5 z"
           id="path4202"
           inkscape:connector-curvature="0" />
        <path
           style="opacity:1;fill:#f5baae;fill-opacity:1;stroke:none;stroke-width:1;stroke-miterlimit:4;stroke-dasharray:none;stroke-opacity:1"
           d="m 146.73322,491.44923 c -0.66211,-0.51245 -1.2458,-0.9829 -1.45758,-2.04557 -0.26285,-1.31898 -0.18729,-2.16329 0.31737,-3.54611 0.37679,-1.03243 1.51267,-3.2886 2.06454,-4.10075 l 0.29074,-0.42786 1.50927,1.35807 c 4.18826,3.76871 4.28534,4.55425 0.98758,7.99137 -1.21534,1.25095 -0.33518,0.29633 -1.44596,1.63835 0,0 -1.62637,-0.37248 -2.26596,-0.8675 z"
           id="path4216"
           inkscape:connector-curvature="0"
           sodipodi:nodetypes="assscscca" />
      </g>
    </g>
  </g>
</svg>
